<?xml version="1.0" encoding="UTF-8" standalone="no"?>
<svg
   width="1000"
   height="1000"
   version="1.1"
   id="svg91"
   sodipodi:docname="Background.003.svg"
   inkscape:version="1.2.1 (9c6d41e410, 2022-07-14)"
   xmlns:inkscape="http://www.inkscape.org/namespaces/inkscape"
   xmlns:sodipodi="http://sodipodi.sourceforge.net/DTD/sodipodi-0.dtd"
   xmlns="http://www.w3.org/2000/svg"
   xmlns:svg="http://www.w3.org/2000/svg">
  <sodipodi:namedview
     id="namedview93"
     pagecolor="#ffffff"
     bordercolor="#cccccc"
     borderopacity="1"
     inkscape:showpageshadow="0"
     inkscape:pageopacity="1"
     inkscape:pagecheckerboard="0"
     inkscape:deskcolor="#d1d1d1"
     showgrid="false"
     inkscape:zoom="0.80174081"
     inkscape:cx="524.48372"
     inkscape:cy="406.6152"
     inkscape:window-width="1920"
     inkscape:window-height="1009"
     inkscape:window-x="-8"
     inkscape:window-y="-8"
     inkscape:window-maximized="1"
     inkscape:current-layer="svg91" />
  <defs
     id="defs5">
    <filter
       color-interpolation-filters="auto"
       id="filter-1"
       x="0"
       y="0"
       width="1"
       height="1">
      <feColorMatrix
         in="SourceGraphic"
         type="matrix"
         values="0 0 0 0 0.701961 0 0 0 0 0.780392 0 0 0 0 0.796078 0 0 0 1.000000 0"
         id="feColorMatrix2" />
    </filter>
  </defs>
  <g
     id="Accueil"
     stroke="none"
     stroke-width="1.3127"
     fill="none"
     fill-rule="evenodd"
     transform="matrix(0.76178675,0,0,0.76178675,0.83308039,119.49071)">
    <g
       id="Accueil---Sans-nouvelles_Texture2"
       transform="translate(-917,130)"
       style="stroke-width:1.3127">
      <g
         id="Fichier-1Texture2"
         transform="translate(0,141)"
         filter="url(#filter-1)"
         style="stroke-width:1.37855">
        <g
           transform="rotate(-29,1102.46,-1607.071)"
           fill="#ffffff"
           fill-rule="nonzero"
           id="g86"
           style="stroke-width:1.4477">
          <g
             id="Group"
             opacity="0.3"
             transform="translate(71.32)"
             style="stroke-width:1.52032">
            <path
               id="Path"
               opacity="0.5"
               d="m 619.33,321.988 v 59.99 l 52.088,30.022 52.06,-30.023 v -59.99 l -52.06,-30.022 z"
               style="stroke-width:1.59659" />
            <path
               id="path8"
               opacity="0.2"
               d="m 731.954,321.96 v 60.017 l 52.088,29.995 52.06,-29.995 V 321.96 l -52.06,-29.995 z"
               style="stroke-width:1.59659" />
            <path
               id="path10"
               opacity="0.5"
               d="m 788.252,224.666 v 59.99 l 52.088,30.022 52.06,-30.022 v -59.99 l -52.06,-30.023 z"
               style="stroke-width:1.59659" />
            <path
               id="path12"
               d="m 900.903,224.638 v 59.99 l 52.088,30.022 52.06,-30.022 v -59.99 l -52.06,-30.023 z"
               style="stroke-width:1.3127" />
            <path
               id="path14"
               opacity="0.4"
               d="m 844.577,127.316 v 60.018 l 52.088,29.995 52.06,-29.995 v -60.018 l -52.06,-29.994 z"
               style="stroke-width:1.59659" />
            <path
               id="path16"
               opacity="0.2"
               d="m 957.2,127.316 v 59.99 l 52.089,30.023 52.088,-30.023 v -59.99 l -52.088,-30.022 z"
               style="stroke-width:1.59659" />
            <path
               id="path18"
               opacity="0.5"
               d="m 1069.824,127.288 v 60.018 l 52.088,29.995 52.088,-29.995 v -60.018 l -52.088,-29.994 z"
               style="stroke-width:1.59659" />
            <path
               id="path20"
               d="m 112.623,224.638 v 60.018 l 52.06,29.994 52.088,-29.994 v -60.018 l -52.06,-29.995 z"
               style="stroke-width:1.3127" />
            <path
               id="path22"
               opacity="0.5"
               d="m 225.219,224.638 v 60.018 l 52.06,29.994 52.088,-29.994 v -60.018 l -52.06,-29.995 z"
               style="stroke-width:1.59659" />
            <path
               id="path24"
               opacity="0.4"
               d="m 281.516,127.344 v 60.018 l 52.06,29.995 52.088,-30.023 v -59.99 L 333.576,97.322 Z"
               style="stroke-width:1.59659" />
            <path
               id="path26"
               opacity="0.5"
               d="m 0,224.638 v 60.018 l 52.088,29.994 52.088,-29.994 V 224.638 L 52.088,194.643 Z"
               style="stroke-width:1.59659" />
            <path
               id="path28"
               opacity="0.2"
               d="m 168.921,127.316 v 60.018 l 52.06,29.995 52.088,-29.995 v -60.018 l -52.06,-29.994 z m 112.567,194.672 v 60.017 l 52.088,29.995 52.06,-29.995 v -60.017 l -52.06,-30.023 z"
               style="stroke-width:1.59659" />
            <path
               id="path30"
               d="m 394.084,321.988 v 60.017 l 52.088,29.995 52.06,-29.995 0.028,-60.017 -52.088,-29.995 z"
               style="stroke-width:1.3127" />
            <path
               id="path32"
               opacity="0.5"
               d="m 450.381,224.666 v 60.018 l 52.088,29.994 52.088,-29.994 v -60.018 l -52.088,-29.995 z"
               style="stroke-width:1.59659" />
            <path
               id="path34"
               d="m 563.005,224.666 v 59.99 l 52.088,30.022 52.088,-29.994 v -60.018 l -52.088,-29.995 z"
               style="stroke-width:1.3127" />
            <path
               id="path36"
               opacity="0.2"
               d="m 619.302,127.344 v 60.018 l 52.088,29.995 52.088,-29.995 V 127.344 L 671.39,97.35 Z"
               style="stroke-width:1.59659" />
            <path
               id="path38"
               opacity="0.4"
               d="M 675.628,30.023 V 90.04 l 52.088,29.995 52.088,-29.995 V 30.023 L 727.716,0.028 Z"
               style="stroke-width:1.59659" />
            <path
               id="path40"
               opacity="0.2"
               d="m 788.28,29.995 v 60.017 l 52.06,29.995 52.087,-29.995 V 29.995 L 840.34,0 Z"
               style="stroke-width:1.59659" />
          </g>
          <g
             id="g79"
             opacity="0.5"
             transform="translate(15.032,49.978)"
             style="stroke-width:1.52032">
            <path
               id="path43"
               d="m 619.345,321.988 v 59.99 l 52.061,30.022 52.09,-30.023 v -59.99 l -52.09,-30.022 z"
               style="stroke-width:1.3127" />
            <path
               id="path45"
               opacity="0.2"
               d="m 731.943,321.96 v 60.017 l 52.09,29.995 52.089,-29.995 V 321.96 l -52.09,-29.995 z"
               style="stroke-width:1.59659" />
            <path
               id="path47"
               d="m 788.242,224.666 v 59.99 l 52.09,30.022 52.089,-30.022 v -59.99 l -52.09,-30.023 z"
               style="stroke-width:1.3127" />
            <path
               id="path49"
               opacity="0.3"
               d="m 900.925,224.638 v 59.99 l 52.06,30.022 52.09,-30.022 v -59.99 l -52.09,-30.023 z"
               style="stroke-width:1.59659" />
            <path
               id="path51"
               opacity="0.4"
               d="m 844.597,127.316 v 60.018 l 52.062,29.995 52.089,-29.995 v -60.018 l -52.09,-29.994 z"
               style="stroke-width:1.59659" />
            <path
               id="path53"
               opacity="0.2"
               d="m 957.224,127.316 v 59.99 l 52.089,30.023 52.06,-30.023 v -59.99 l -52.06,-30.022 z"
               style="stroke-width:1.59659" />
            <path
               id="path55"
               d="m 1069.85,127.316 v 59.99 l 52.06,30.023 52.09,-30.023 v -59.99 l -52.09,-30.022 z"
               style="stroke-width:1.3127" />
            <path
               id="path57"
               opacity="0.3"
               d="m 112.598,224.638 v 60.018 l 52.09,29.994 52.088,-29.994 v -60.018 l -52.089,-29.995 z"
               style="stroke-width:1.59659" />
            <path
               id="path59"
               d="m 225.224,224.638 -0.028,60.018 52.09,29.994 52.088,-29.994 v -60.018 l -52.089,-29.995 z"
               style="stroke-width:1.3127" />
            <path
               id="path61"
               opacity="0.4"
               d="m 281.495,127.344 v 60.018 l 52.09,29.995 52.088,-30.023 v -59.99 L 333.584,97.322 Z"
               style="stroke-width:1.59659" />
            <path
               id="path63"
               d="m 0,224.638 v 60.018 l 52.061,29.994 52.09,-29.994 V 224.638 L 52.089,194.643 Z"
               style="stroke-width:1.3127" />
            <path
               id="path65"
               opacity="0.2"
               d="m 168.897,127.316 v 60.018 l 52.09,30.023 52.06,-30.023 v -60.018 l -52.06,-29.994 z m 112.57,194.672 v 60.017 l 52.09,29.995 52.088,-29.995 v -60.017 l -52.089,-30.023 z"
               style="stroke-width:1.59659" />
            <path
               id="path67"
               opacity="0.3"
               d="m 394.065,321.988 0.028,60.017 52.061,29.995 52.09,-29.995 v -60.017 l -52.09,-29.995 z"
               style="stroke-width:1.59659" />
            <path
               id="path69"
               d="m 450.392,224.666 v 60.018 l 52.09,29.994 52.06,-29.994 v -60.018 l -52.06,-29.995 z"
               style="stroke-width:1.3127" />
            <path
               id="path71"
               opacity="0.3"
               d="m 563.018,224.666 v 59.99 l 52.09,30.022 52.06,-29.994 v -60.018 l -52.06,-29.995 z"
               style="stroke-width:1.59659" />
            <path
               id="path73"
               opacity="0.2"
               d="m 619.317,127.344 v 60.018 l 52.061,29.995 52.09,-29.995 V 127.344 L 671.406,97.35 Z"
               style="stroke-width:1.59659" />
            <path
               id="path75"
               opacity="0.4"
               d="M 675.644,30.023 V 90.04 l 52.061,29.995 52.09,-29.995 V 30.023 L 727.705,0.028 Z"
               style="stroke-width:1.59659" />
            <path
               id="path77"
               opacity="0.2"
               d="M 788.27,29.995 V 90.012 L 840.36,120.007 892.449,90.012 892.421,29.995 840.36,0 Z"
               style="stroke-width:1.59659" />
          </g>
          <path
             d="m 126.938,270.454 a 3.453,3.453 0 0 0 2.807,1.682 v 65.919 a 3.21,3.21 0 0 0 -1.347,0.448 3.5,3.5 0 0 0 -1.403,4.513 l -57.338,32.96 a 3.511,3.511 0 0 0 -4.603,-1.038 3.899,3.899 0 0 0 -1.15,1.093 L 6.762,343.071 a 3.5,3.5 0 0 0 0,-3.278 3.565,3.565 0 0 0 -2.806,-1.71 V 272.22 a 3.473,3.473 0 0 0 2.863,-4.96 l 57.14,-32.988 a 3.54,3.54 0 0 0 4.631,1.037 3.871,3.871 0 0 0 1.067,-0.953 l 57.17,32.96 a 3.527,3.527 0 0 0 0.111,3.138 z m 126.463,0 a 3.453,3.453 0 0 0 2.666,1.682 v 65.89 a 3.483,3.483 0 0 0 -1.347,0.45 3.557,3.557 0 0 0 -1.431,4.54 l -57.141,32.931 a 3.567,3.567 0 0 0 -4.631,-1.009 3.49,3.49 0 0 0 -1.15,1.065 l -57.17,-32.96 a 3.415,3.415 0 0 0 0,-3.25 3.537,3.537 0 0 0 -2.807,-1.71 v -65.891 a 3.062,3.062 0 0 0 1.46,-0.449 3.5,3.5 0 0 0 1.431,-4.512 l 57.141,-32.96 a 3.454,3.454 0 0 0 5.614,0 l 57.225,33.016 a 3.5,3.5 0 0 0 0.14,3.167 z m -56.944,181.95 a 3.387,3.387 0 0 0 -0.033,-3.263 3.396,3.396 0 0 0 -2.774,-1.725 v -65.891 a 3.652,3.652 0 0 0 1.487,-0.449 3.529,3.529 0 0 0 1.432,-4.512 l 57.169,-32.96 a 3.511,3.511 0 0 0 4.603,1.037 c 0.42,-0.248 0.79,-0.571 1.094,-0.953 l 57.142,32.932 a 3.5,3.5 0 0 0 0,3.167 3.453,3.453 0 0 0 2.806,1.681 v 65.92 a 2.95,2.95 0 0 0 -1.347,0.448 3.5,3.5 0 0 0 -1.431,4.512 l -57.282,32.96 a 3.511,3.511 0 0 0 -4.63,-1.009 3.619,3.619 0 0 0 -1.123,1.037 z m 120.372,-76.4 -57.17,-32.96 a 3.5,3.5 0 0 0 0,-3.251 3.565,3.565 0 0 0 -2.806,-1.71 v -65.891 a 3.652,3.652 0 0 0 1.46,-0.449 3.473,3.473 0 0 0 1.403,-4.512 l 57.141,-32.96 a 3.454,3.454 0 0 0 5.613,0 l 57.254,33.016 a 3.443,3.443 0 0 0 0,3.14 3.368,3.368 0 0 0 2.638,1.68 v 65.92 c -0.474,0.06 -0.932,0.212 -1.347,0.448 a 3.557,3.557 0 0 0 -1.404,4.513 l -57.197,32.987 a 3.54,3.54 0 0 0 -4.63,-1.037 3.14,3.14 0 0 0 -0.983,1.065 h 0.028 z m -126.631,76.68 a 3.567,3.567 0 0 0 4.855,1.29 c 0.432,-0.22 0.8,-0.549 1.067,-0.953 l 57.14,32.96 a 3.5,3.5 0 0 0 0.141,3.167 3.567,3.567 0 0 0 4.856,1.289 3.5,3.5 0 0 0 1.403,-4.512 l 57.225,-32.988 a 3.511,3.511 0 0 0 4.603,1.037 3.56,3.56 0 0 0 1.263,-4.905 3.48,3.48 0 0 0 -2.807,-1.71 v -65.834 a 3.259,3.259 0 0 0 1.488,-0.449 3.529,3.529 0 0 0 1.431,-4.512 l 57.17,-32.96 a 3.511,3.511 0 0 0 4.63,1.01 c 0.417,-0.231 0.78,-0.546 1.067,-0.926 l 57.141,32.96 a 3.639,3.639 0 0 0 0.14,3.139 3.537,3.537 0 0 0 2.666,1.681 v 65.948 a 3.877,3.877 0 0 0 -1.43,0.448 3.557,3.557 0 0 0 -1.292,4.849 3.507,3.507 0 0 0 4.855,1.289 c 0.441,-0.244 0.816,-0.59 1.095,-1.009 l 57.141,32.96 a 3.639,3.639 0 0 0 0,3.223 3.539,3.539 0 0 0 4.694,1.403 3.53,3.53 0 0 0 1.593,-4.626 l 57.394,-32.988 a 3.511,3.511 0 0 0 4.602,1.037 3.557,3.557 0 0 0 1.32,-4.849 3.509,3.509 0 0 0 -2.807,-1.71 v -65.918 a 3.371,3.371 0 0 0 1.46,-0.42 3.529,3.529 0 0 0 1.43,-4.513 l 57.17,-32.96 a 3.54,3.54 0 0 0 4.603,1.037 c 0.42,-0.26 0.79,-0.591 1.094,-0.98 l 57.141,32.93 a 3.667,3.667 0 0 0 0,3.196 3.567,3.567 0 0 0 4.856,1.29 3.529,3.529 0 0 0 1.431,-4.513 l 57.17,-32.96 a 3.54,3.54 0 0 0 4.2,1.176 3.53,3.53 0 0 0 -1.03,-6.781 V 272.22 a 3.259,3.259 0 0 0 1.404,-0.42 3.529,3.529 0 0 0 1.431,-4.513 L 822.428,234.3 a 3.511,3.511 0 0 0 4.603,1.009 3.366,3.366 0 0 0 1.094,-0.981 l 57.141,32.96 a 3.5,3.5 0 0 0 0,3.166 3.48,3.48 0 0 0 2.807,1.71 v 65.89 c -0.503,0.051 -0.99,0.204 -1.432,0.45 a 3.559,3.559 0 0 0 0,6.165 3.569,3.569 0 0 0 3.565,0 c 0.428,-0.26 0.8,-0.603 1.094,-1.009 l 57.31,32.96 a 3.471,3.471 0 0 0 0,3.195 3.567,3.567 0 0 0 4.855,1.29 3.473,3.473 0 0 0 1.404,-4.513 l 57.197,-32.96 a 3.54,3.54 0 0 0 4.709,0.803 3.529,3.529 0 0 0 1.213,-4.614 3.48,3.48 0 0 0 -2.807,-1.71 V 272.22 a 4.045,4.045 0 0 0 1.431,-0.449 3.557,3.557 0 0 0 1.404,-4.512 l 57.141,-32.96 a 3.54,3.54 0 0 0 4.63,1.038 3.557,3.557 0 0 0 1.292,-4.85 3.453,3.453 0 0 0 -2.807,-1.68 v -65.92 a 2.95,2.95 0 0 0 1.403,-0.448 3.529,3.529 0 0 0 1.404,-4.513 l 57.534,-32.987 a 3.54,3.54 0 0 0 4.183,1.175 3.53,3.53 0 0 0 -0.956,-6.78 V 53.525 c 0.503,-0.05 0.99,-0.203 1.432,-0.448 a 3.529,3.529 0 0 0 1.403,-4.512 l -0.337,-0.617 a 3.567,3.567 0 0 0 -4.63,-1.037 c -0.429,0.26 -0.8,0.604 -1.095,1.01 l -57.141,-32.932 a 3.387,3.387 0 0 0 -0.087,-3.204 3.396,3.396 0 0 0 -2.72,-1.701 h -0.673 c -0.503,0.05 -0.99,0.203 -1.432,0.448 a 3.529,3.529 0 0 0 -1.431,4.513 l -57.226,32.903 a 3.54,3.54 0 0 0 -4.63,-1.037 3.557,3.557 0 0 0 -1.291,4.849 3.48,3.48 0 0 0 2.806,1.71 v 65.919 a 3.371,3.371 0 0 0 -1.46,0.42 3.5,3.5 0 0 0 -1.402,4.512 l -57.254,32.988 a 3.511,3.511 0 0 0 -4.603,-1.037 3.086,3.086 0 0 0 -1.122,1.037 l -57.141,-32.932 a 3.5,3.5 0 0 0 -0.758,-4.13 3.512,3.512 0 0 0 -4.182,-0.438 3.529,3.529 0 0 0 -1.431,4.512 l -57.17,32.96 a 3.511,3.511 0 0 0 -4.63,-1.01 3.142,3.142 0 0 0 -1.123,1.066 l -57.141,-32.96 a 3.5,3.5 0 0 0 -0.771,-3.99 3.512,3.512 0 0 0 -4.028,-0.578 3.529,3.529 0 0 0 -1.432,4.512 l -57.281,32.96 a 3.54,3.54 0 0 0 -4.631,-1.037 3.225,3.225 0 0 0 -1.123,1.093 l -57.169,-32.96 a 3.415,3.415 0 0 0 0,-3.279 3.48,3.48 0 0 0 -2.807,-1.71 V 53.5 a 3.765,3.765 0 0 0 1.516,-0.449 3.557,3.557 0 0 0 1.305,-4.863 3.567,3.567 0 0 0 -4.87,-1.303 3.478,3.478 0 0 0 -1.122,1.093 l -57.253,-32.96 a 3.5,3.5 0 0 0 -0.78,-4.128 3.512,3.512 0 0 0 -4.188,-0.412 3.557,3.557 0 0 0 -1.403,4.513 L 512.249,47.92 a 3.54,3.54 0 0 0 -4.71,-0.802 3.529,3.529 0 0 0 -1.212,4.614 3.452,3.452 0 0 0 2.61,1.681 v 65.92 a 3.483,3.483 0 0 0 -1.347,0.448 3.529,3.529 0 0 0 -1.403,4.512 l -57.142,32.96 a 3.511,3.511 0 0 0 -4.63,-1.01 3.31,3.31 0 0 0 -1.151,1.094 l -57.17,-32.96 a 3.471,3.471 0 0 0 0,-3.307 3.567,3.567 0 0 0 -4.855,-1.29 3.473,3.473 0 0 0 -1.403,4.513 l -57.282,32.988 a 3.54,3.54 0 0 0 -4.823,-0.972 3.529,3.529 0 0 0 -1.126,4.783 c 0.6,0.993 1.648,1.63 2.806,1.71 v 65.891 a 3.452,3.452 0 0 0 -1.375,0.449 3.529,3.529 0 0 0 -1.431,4.512 l -57.282,32.988 a 3.54,3.54 0 0 0 -4.63,-1.037 3.33,3.33 0 0 0 -1.123,1.037 L 196.457,233.71 a 3.5,3.5 0 0 0 0,-3.251 3.539,3.539 0 0 0 -4.632,-1.322 3.53,3.53 0 0 0 -1.655,4.517 l -57.31,32.988 a 3.511,3.511 0 0 0 -4.602,-1.037 3.815,3.815 0 0 0 -1.151,1.065 L 69.966,233.738 a 3.471,3.471 0 0 0 0,-3.28 3.539,3.539 0 0 0 -4.6,-1.234 3.53,3.53 0 0 0 -1.659,4.458 L 6.397,266.67 a 3.54,3.54 0 0 0 -4.63,-1.037 3.557,3.557 0 0 0 -1.291,4.848 c 0.6,0.989 1.65,1.618 2.806,1.682 v 65.89 a 3.504,3.504 0 0 0 -2.807,4.96 l 0.337,0.59 a 3.54,3.54 0 0 0 4.631,1.037 4.216,4.216 0 0 0 1.067,-0.925 l 57.14,32.96 a 3.415,3.415 0 0 0 0.158,3.134 3.424,3.424 0 0 0 2.65,1.687 h 0.701 a 3.23,3.23 0 0 0 1.516,-0.42 3.529,3.529 0 0 0 1.431,-4.513 l 57.17,-32.988 a 3.51,3.51 0 0 0 5.612,0 l 57.17,32.96 a 3.639,3.639 0 0 0 0,3.139 3.537,3.537 0 0 0 2.806,1.681 v 66.032 a 3.427,3.427 0 0 0 -1.347,0.42 3.585,3.585 0 0 0 -1.32,4.877 z m 252.73,-294.73 a 3.639,3.639 0 0 0 0.14,3.14 3.565,3.565 0 0 0 2.638,1.681 v 65.92 a 3.82,3.82 0 0 0 -1.32,0.42 3.557,3.557 0 0 0 -1.43,4.54 l -57.17,32.96 a 3.54,3.54 0 0 0 -4.63,-1.037 3.702,3.702 0 0 0 -1.124,1.065 l -57.281,-32.96 a 3.387,3.387 0 0 0 -0.069,-3.224 3.396,3.396 0 0 0 -2.738,-1.709 v -65.919 a 3.596,3.596 0 0 0 1.488,-0.42 3.557,3.557 0 0 0 1.403,-4.513 l 57.226,-33.015 a 3.54,3.54 0 0 0 4.63,1.037 c 0.409,-0.23 0.763,-0.546 1.039,-0.925 l 57.197,32.96 z m 69.293,-32.931 57.113,32.903 a 3.387,3.387 0 0 0 0.139,3.145 3.396,3.396 0 0 0 2.667,1.676 v 65.947 c -0.477,0.047 -0.937,0.2 -1.347,0.449 a 3.5,3.5 0 0 0 -1.403,4.512 l -57.17,32.96 a 3.54,3.54 0 0 0 -4.63,-1.037 3.225,3.225 0 0 0 -1.123,1.093 l -57.17,-32.96 a 3.415,3.415 0 0 0 0,-3.28 3.48,3.48 0 0 0 -2.806,-1.709 v -65.89 a 3.652,3.652 0 0 0 1.488,-0.45 3.529,3.529 0 0 0 1.431,-4.512 l 57.17,-32.96 a 3.567,3.567 0 0 0 4.63,1.038 4.292,4.292 0 0 0 1.01,-0.925 z m 123.15,-5.605 a 3.343,3.343 0 0 0 -1.346,0.448 3.5,3.5 0 0 0 -1.404,4.512 l -57.281,32.904 a 3.54,3.54 0 0 0 -4.631,-1.037 3.225,3.225 0 0 0 -1.123,1.093 l -57.057,-32.96 a 3.611,3.611 0 0 0 0,-3.307 3.565,3.565 0 0 0 -2.806,-1.681 V 53.47 a 3.484,3.484 0 0 0 1.543,-0.448 3.529,3.529 0 0 0 1.404,-4.512 l 57.057,-32.904 a 3.511,3.511 0 0 0 4.602,1.037 c 0.429,-0.26 0.8,-0.604 1.095,-1.009 l 57.17,32.988 a 3.527,3.527 0 0 0 0.14,3.139 3.62,3.62 0 0 0 2.666,1.681 l -0.028,65.976 z m 60.426,38.62 a 3.443,3.443 0 0 0 0.14,3.14 3.509,3.509 0 0 0 2.638,1.681 v 65.863 c -0.488,0.038 -0.96,0.192 -1.375,0.449 a 3.473,3.473 0 0 0 -1.403,4.512 l -57.198,32.96 a 3.454,3.454 0 0 0 -5.613,0 l -57.253,-32.932 a 3.471,3.471 0 0 0 0,-3.28 3.537,3.537 0 0 0 -2.807,-1.709 v -65.89 a 3.287,3.287 0 0 0 1.516,-0.45 3.5,3.5 0 0 0 1.403,-4.512 l 57.197,-32.96 a 3.54,3.54 0 0 0 4.631,1.038 c 0.403,-0.25 0.756,-0.573 1.039,-0.953 l 57.085,33.044 z m 322.443,-33.632 a 3.471,3.471 0 0 0 0,-3.195 3.537,3.537 0 0 0 -2.806,-1.71 V 53.499 a 3.259,3.259 0 0 0 1.431,-0.42 3.557,3.557 0 0 0 1.431,-4.54 l 57.142,-32.932 a 3.54,3.54 0 0 0 4.602,1.037 3.618,3.618 0 0 0 1.123,-1.037 l 57.141,32.96 a 3.415,3.415 0 0 0 0.106,3.192 3.424,3.424 0 0 0 2.7,1.712 v 65.92 a 3.259,3.259 0 0 0 -1.459,0.448 3.529,3.529 0 0 0 -1.403,4.512 l -57.17,32.988 a 3.51,3.51 0 0 0 -5.612,0 l -57.226,-32.932 z m -34.632,125.674 -28.6,-16.48 a 3.36,3.36 0 0 0 -0.066,-3.215 3.368,3.368 0 0 0 -2.74,-1.69 V 162.86 a 3.062,3.062 0 0 0 1.432,-0.448 3.5,3.5 0 0 0 1.431,-4.513 l 57.17,-32.96 a 3.54,3.54 0 0 0 4.63,1.038 3.45,3.45 0 0 0 1.095,-1.01 l 57.113,32.932 a 3.5,3.5 0 0 0 0,3.251 c 0.6,0.993 1.648,1.63 2.806,1.71 v 65.891 a 3.062,3.062 0 0 0 -1.46,0.449 3.5,3.5 0 0 0 -1.43,4.512 l -57.114,32.932 a 3.483,3.483 0 0 0 -4.602,-1.037 3.534,3.534 0 0 0 -1.095,1.037 z m -94.637,22.14 a 3.877,3.877 0 0 0 1.431,-0.448 3.529,3.529 0 0 0 1.404,-4.512 l 57.169,-32.987 a 3.54,3.54 0 0 0 4.63,1.037 3.45,3.45 0 0 0 1.095,-1.01 l 28.57,16.48 28.6,16.48 a 3.387,3.387 0 0 0 0,3.195 3.48,3.48 0 0 0 2.806,1.71 v 65.89 c -0.503,0.051 -0.99,0.204 -1.431,0.45 a 3.529,3.529 0 0 0 -1.432,4.512 l -57.169,32.987 a 3.54,3.54 0 0 0 -4.63,-1.037 3.45,3.45 0 0 0 -1.095,1.01 l -57.142,-32.96 a 3.527,3.527 0 0 0 0,-3.223 3.509,3.509 0 0 0 -2.806,-1.682 z M 828.49,230.46 a 3.453,3.453 0 0 0 -2.807,-1.68 v -65.92 a 3.652,3.652 0 0 0 1.488,-0.448 3.473,3.473 0 0 0 1.403,-4.513 l 57.197,-32.96 a 3.454,3.454 0 0 0 5.614,0 l 57.225,33.016 a 3.415,3.415 0 0 0 0,3.167 c 0.6,0.99 1.65,1.618 2.806,1.682 v 65.92 c -0.484,0.05 -0.953,0.203 -1.375,0.448 a 3.529,3.529 0 0 0 -1.431,4.512 l -57.141,32.96 a 3.54,3.54 0 0 0 -4.631,-1.037 c -0.45,0.264 -0.835,0.629 -1.123,1.065 l -57.14,-32.96 a 3.583,3.583 0 0 0 -0.085,-3.251 z m -69.237,36.184 -57.114,-32.932 a 3.5,3.5 0 0 0 0,-3.251 3.565,3.565 0 0 0 -2.806,-1.71 v -65.919 a 3.287,3.287 0 0 0 1.515,-0.448 3.473,3.473 0 0 0 1.404,-4.513 l 57.169,-32.96 a 3.511,3.511 0 0 0 4.63,1.038 3.14,3.14 0 0 0 1.067,-0.953 l 57.198,32.96 a 3.415,3.415 0 0 0 0.14,3.153 3.424,3.424 0 0 0 2.666,1.695 v 65.92 c -0.493,0.054 -0.97,0.207 -1.403,0.448 a 3.529,3.529 0 0 0 -1.403,4.512 l -57.338,32.988 a 3.511,3.511 0 0 0 -5.725,-0.028 z m -120.317,76.4 a 3.387,3.387 0 0 0 -0.069,-3.223 3.396,3.396 0 0 0 -2.738,-1.709 v -65.92 a 3.371,3.371 0 0 0 1.46,-0.42 3.529,3.529 0 0 0 1.431,-4.512 l 57.001,-32.987 a 3.54,3.54 0 0 0 4.63,1.037 3.871,3.871 0 0 0 1.067,-0.953 l 57.114,32.931 a 3.415,3.415 0 0 0 0.105,3.193 3.424,3.424 0 0 0 2.701,1.712 v 65.863 c -0.493,0.055 -0.97,0.207 -1.403,0.448 a 3.5,3.5 0 0 0 -1.403,4.513 l -57.17,32.96 a 3.511,3.511 0 0 0 -4.63,-1.01 3.086,3.086 0 0 0 -1.123,1.037 z m -69.21,32.96 -57.14,-32.96 a 3.5,3.5 0 0 0 0,-3.278 3.425,3.425 0 0 0 -2.807,-1.682 v -65.92 a 3.287,3.287 0 0 0 1.515,-0.448 3.473,3.473 0 0 0 1.404,-4.484 l 57.029,-32.96 a 3.511,3.511 0 0 0 4.602,1.01 c 0.41,-0.24 0.773,-0.553 1.067,-0.925 l 57.141,32.931 a 3.415,3.415 0 0 0 0,3.167 c 0.6,0.993 1.648,1.63 2.807,1.71 v 65.89 a 3.48,3.48 0 0 0 -1.376,0.45 3.529,3.529 0 0 0 -1.43,4.512 l -57.198,32.96 a 3.567,3.567 0 0 0 -4.631,-1.038 c -0.396,0.285 -0.73,0.648 -0.982,1.065 z m -123.235,5.606 a 3.652,3.652 0 0 0 1.488,-0.449 3.529,3.529 0 0 0 1.431,-4.512 l 57.17,-32.96 a 3.511,3.511 0 0 0 4.63,1.01 c 0.417,-0.231 0.78,-0.546 1.067,-0.926 l 57.141,32.932 a 3.415,3.415 0 0 0 0,3.167 3.48,3.48 0 0 0 2.807,1.71 v 65.807 c -0.485,0.05 -0.954,0.203 -1.376,0.448 a 3.529,3.529 0 0 0 -1.431,4.512 l -57.225,32.988 a 3.54,3.54 0 0 0 -4.603,-1.037 3.647,3.647 0 0 0 -1.123,1.037 l -57.141,-32.96 a 3.443,3.443 0 0 0 0,-3.223 3.509,3.509 0 0 0 -2.807,-1.681 z m -60.34,-38.481 a 3.5,3.5 0 0 0 0,-3.28 3.425,3.425 0 0 0 -2.807,-1.681 v -66.003 a 3.596,3.596 0 0 0 1.488,-0.42 3.529,3.529 0 0 0 1.431,-4.513 l 57.17,-32.988 a 3.511,3.511 0 0 0 4.602,1.037 3.45,3.45 0 0 0 1.066,-0.924 l 57.17,32.96 a 3.387,3.387 0 0 0 2.778,4.792 v 65.919 a 3.596,3.596 0 0 0 -1.375,0.448 3.529,3.529 0 0 0 -1.403,4.513 l -57.226,32.96 a 3.483,3.483 0 0 0 -4.602,-1.01 3.222,3.222 0 0 0 -1.151,1.065 z"
             id="Shape"
             opacity="0.15"
             style="stroke-width:1.52032" />
          <path
             d="m 188.209,275.852 a 3.032,3.032 0 0 0 2.301,1.456 v 56.685 c -0.415,0.05 -0.817,0.183 -1.179,0.392 a 3.021,3.021 0 0 0 -1.207,3.893 l -49.23,28.343 a 3.064,3.064 0 0 0 -3.985,-0.868 2.804,2.804 0 0 0 -0.983,0.924 l -49.23,-28.343 c 0.55,-0.877 0.571,-1.985 0.054,-2.882 a 2.808,2.808 0 0 0 -2.524,-1.403 v -56.685 a 3.658,3.658 0 0 0 1.32,-0.392 3.021,3.021 0 0 0 1.15,-3.92 l 49.37,-28.343 a 3.063,3.063 0 0 0 3.986,0.896 c 0.368,-0.207 0.685,-0.494 0.926,-0.84 l 49.118,28.286 a 2.991,2.991 0 0 0 0.113,2.801 z m 108.9,0 a 3.032,3.032 0 0 0 2.302,1.456 v 56.713 a 2.81,2.81 0 0 0 -1.179,0.392 3.021,3.021 0 0 0 -1.234,3.865 l -49.203,28.343 a 3.063,3.063 0 0 0 -3.985,-0.896 3.197,3.197 0 0 0 -0.982,0.952 l -49.23,-28.37 a 2.99,2.99 0 0 0 0,-2.801 2.976,2.976 0 0 0 -2.386,-1.457 v -56.713 a 2.98,2.98 0 0 0 1.263,-0.364 3.021,3.021 0 0 0 1.122,-3.92 l 49.259,-28.343 a 3.035,3.035 0 0 0 3.985,0.868 2.8,2.8 0 0 0 0.926,-0.812 l 49.23,28.286 a 2.795,2.795 0 0 0 0.113,2.801 z m -49.06,156.556 a 3.047,3.047 0 0 0 0,-2.8 3.004,3.004 0 0 0 -2.415,-1.457 V 371.41 c 0.456,-0.024 0.9,-0.159 1.291,-0.392 a 2.993,2.993 0 0 0 1.207,-3.865 l 49.23,-28.37 a 3.063,3.063 0 0 0 3.986,0.896 3.31,3.31 0 0 0 0.926,-0.84 l 49.202,28.37 a 2.935,2.935 0 0 0 0,2.8 2.807,2.807 0 0 0 2.274,1.457 v 56.713 a 3.05,3.05 0 0 0 -2.386,4.285 l -49.174,28.23 a 3.035,3.035 0 0 0 -3.986,-0.896 3,3 0 0 0 -0.954,0.925 l -49.202,-28.315 z m 103.652,-65.76 -49.23,-28.342 a 2.99,2.99 0 0 0 0,-2.8 3.144,3.144 0 0 0 -2.414,-1.485 v -56.685 a 2.798,2.798 0 0 0 1.29,-0.392 3.049,3.049 0 0 0 1.124,-3.893 l 49.23,-28.37 a 3.035,3.035 0 0 0 3.985,0.868 c 0.366,-0.199 0.682,-0.476 0.927,-0.812 l 49.258,28.314 a 2.795,2.795 0 0 0 0.035,2.752 2.808,2.808 0 0 0 2.378,1.393 v 56.685 c -0.41,0.067 -0.809,0.2 -1.178,0.392 a 3.021,3.021 0 0 0 -1.207,3.893 l -49.258,28.455 a 3.035,3.035 0 0 0 -3.986,-0.896 3.337,3.337 0 0 0 -0.954,0.924 z m -109.014,66.04 a 3.065,3.065 0 0 0 4.182,1.12 c 0.35,-0.21 0.655,-0.486 0.898,-0.812 l 49.23,28.343 a 2.99,2.99 0 0 0 0,2.8 3.091,3.091 0 0 0 4.21,1.12 3.021,3.021 0 0 0 1.208,-3.864 l 49.258,-28.399 a 3.038,3.038 0 0 0 5.253,-0.25 3.024,3.024 0 0 0 -0.145,-3.027 3.004,3.004 0 0 0 -2.414,-1.456 V 371.41 c 0.499,0.017 0.993,-0.1 1.432,-0.336 a 3.021,3.021 0 0 0 1.206,-3.865 l 49.315,-28.427 a 3.064,3.064 0 0 0 3.985,0.869 c 0.362,-0.193 0.67,-0.472 0.898,-0.812 l 49.23,28.37 a 2.935,2.935 0 0 0 0,2.8 3.032,3.032 0 0 0 2.302,1.457 v 56.77 a 2.811,2.811 0 0 0 -1.235,0.363 3.052,3.052 0 0 0 -1.123,4.173 3.065,3.065 0 0 0 4.182,1.12 c 0.375,-0.22 0.7,-0.516 0.955,-0.868 l 49.202,28.37 a 2.963,2.963 0 0 0 0,2.801 3.058,3.058 0 0 0 1.858,1.426 c 0.784,0.21 1.62,0.104 2.324,-0.305 a 3.021,3.021 0 0 0 1.235,-3.893 l 49.258,-28.37 a 3.18,3.18 0 0 0 4.392,0.937 3.165,3.165 0 0 0 0.94,-4.383 2.807,2.807 0 0 0 -2.385,-1.484 v -56.685 a 3.317,3.317 0 0 0 1.263,-0.392 3.05,3.05 0 0 0 1.235,-3.893 l 49.202,-28.37 a 3.007,3.007 0 0 0 3.986,0.896 c 0.368,-0.207 0.684,-0.494 0.926,-0.84 l 49.23,28.37 a 2.99,2.99 0 0 0 0,2.8 3.065,3.065 0 0 0 4.182,1.12 3.021,3.021 0 0 0 1.207,-3.892 l 49.23,-28.342 a 3.035,3.035 0 0 0 3.985,0.868 3.047,3.047 0 0 0 1.123,-4.173 2.976,2.976 0 0 0 -2.386,-1.457 v -56.769 a 3.29,3.29 0 0 0 1.235,-0.364 3.05,3.05 0 0 0 1.207,-3.893 l 49.287,-28.398 a 3.035,3.035 0 0 0 3.985,0.896 3.31,3.31 0 0 0 0.926,-0.84 l 49.202,28.286 a 2.935,2.935 0 0 0 0.118,2.755 2.948,2.948 0 0 0 2.352,1.446 v 56.713 a 3.29,3.29 0 0 0 -1.235,0.364 3.105,3.105 0 0 0 -1.122,4.201 3.065,3.065 0 0 0 4.182,1.12 c 0.375,-0.23 0.7,-0.535 0.954,-0.896 l 49.202,28.371 a 2.795,2.795 0 0 0 0,2.8 3.009,3.009 0 0 0 4.182,1.12 3.05,3.05 0 0 0 1.207,-3.864 l 49.23,-28.37 a 3.064,3.064 0 0 0 4.052,0.652 3.049,3.049 0 0 0 1.056,-3.957 3.088,3.088 0 0 0 -2.357,-1.457 v -56.713 a 2.811,2.811 0 0 0 1.235,-0.364 3.05,3.05 0 0 0 1.235,-3.893 l 49.202,-28.342 a 3.035,3.035 0 0 0 3.585,1.095 3.024,3.024 0 0 0 -0.779,-5.828 V 183.43 a 2.81,2.81 0 0 0 1.18,-0.392 3.021,3.021 0 0 0 1.234,-3.865 l 49.258,-28.399 a 3.04,3.04 0 0 0 4.196,0.91 3.026,3.026 0 0 0 0.912,-4.187 2.948,2.948 0 0 0 -2.33,-1.456 V 89.19 a 3.022,3.022 0 0 0 2.442,-4.285 l -0.308,-0.504 a 2.977,2.977 0 0 0 -4.912,0 L 1010.16,56 a 2.795,2.795 0 0 0 0,-2.805 2.808,2.808 0 0 0 -2.439,-1.396 h -0.589 a 3.345,3.345 0 0 0 -1.235,0.392 3.05,3.05 0 0 0 -1.235,3.893 L 955.46,84.371 a 3.035,3.035 0 0 0 -3.986,-0.868 2.994,2.994 0 0 0 1.235,5.601 v 56.741 a 2.82,2.82 0 0 0 -1.263,0.364 3.021,3.021 0 0 0 -1.206,3.893 l -49.23,28.37 a 3.092,3.092 0 0 0 -3.986,-0.896 3.393,3.393 0 0 0 -0.982,0.897 L 846.977,150.13 a 2.99,2.99 0 0 0 0,-2.8 3.063,3.063 0 0 0 -4.01,-1.105 3.05,3.05 0 0 0 -1.407,3.905 l -49.427,28.343 a 2.949,2.949 0 0 0 -4.94,0 l -49.23,-28.315 a 3.02,3.02 0 0 0 -0.965,-3.545 3.037,3.037 0 0 0 -3.682,0 3.02,3.02 0 0 0 -0.966,3.545 l -49.062,28.287 a 3.063,3.063 0 0 0 -3.985,-0.897 3.196,3.196 0 0 0 -0.983,0.953 L 629.09,150.13 c 0.55,-0.877 0.57,-1.985 0.054,-2.882 a 2.808,2.808 0 0 0 -2.524,-1.403 V 89.161 c 0.456,-0.024 0.9,-0.159 1.291,-0.392 a 3.019,3.019 0 0 0 1.123,-4.173 3.065,3.065 0 0 0 -4.182,-1.12 2.804,2.804 0 0 0 -0.954,0.952 l -49.174,-28.37 a 2.99,2.99 0 0 0 0,-2.801 3.058,3.058 0 0 0 -1.858,-1.426 3.047,3.047 0 0 0 -2.324,0.305 3.021,3.021 0 0 0 -1.207,3.893 l -49.343,28.315 a 3.035,3.035 0 0 0 -3.985,-0.896 3.105,3.105 0 0 0 -1.123,4.2 3.004,3.004 0 0 0 2.246,1.429 v 56.741 c -0.396,0.04 -0.779,0.165 -1.123,0.364 a 3.077,3.077 0 0 0 -1.235,3.893 l -49.23,28.37 a 3.035,3.035 0 0 0 -3.986,-0.896 3.197,3.197 0 0 0 -0.982,0.953 l -49.202,-28.343 a 3.02,3.02 0 0 0 -0.828,-3.69 3.036,3.036 0 0 0 -3.79,0 3.02,3.02 0 0 0 -0.827,3.69 l -49.286,28.315 a 3.007,3.007 0 0 0 -3.986,-0.897 3.047,3.047 0 0 0 -1.123,4.173 3.032,3.032 0 0 0 2.302,1.457 v 56.713 c -0.414,0.04 -0.815,0.163 -1.179,0.364 a 3.05,3.05 0 0 0 -1.235,3.893 l -49.23,28.37 a 3.035,3.035 0 0 0 -3.986,-0.896 3.337,3.337 0 0 0 -0.954,0.924 l -49.23,-28.37 a 2.99,2.99 0 0 0 0,-2.8 3.065,3.065 0 0 0 -4.182,-1.12 3.021,3.021 0 0 0 -1.207,3.892 l -49.314,28.37 a 3.035,3.035 0 0 0 -3.986,-0.868 2.805,2.805 0 0 0 -0.982,0.896 l -49.202,-28.342 a 2.99,2.99 0 0 0 0,-2.8 3.065,3.065 0 0 0 -4.182,-1.12 3.021,3.021 0 0 0 -1.207,3.892 l -49.37,28.37 a 3.036,3.036 0 0 0 -4.077,-0.733 3.02,3.02 0 0 0 -1.004,4.01 c 0.464,0.85 1.334,1.4 2.302,1.456 v 56.685 a 2.81,2.81 0 0 0 -1.179,0.392 3.021,3.021 0 0 0 -1.207,3.893 l 0.28,0.504 a 3.063,3.063 0 0 0 3.986,0.897 c 0.357,-0.2 0.672,-0.465 0.927,-0.784 l 49.202,28.342 a 2.935,2.935 0 0 0 0,2.8 2.807,2.807 0 0 0 2.245,1.457 h 0.617 c 0.461,-0.025 0.911,-0.15 1.32,-0.364 a 3.021,3.021 0 0 0 1.207,-3.893 l 49.23,-28.37 a 3.092,3.092 0 0 0 4.013,0.896 c 0.358,-0.21 0.665,-0.498 0.898,-0.84 l 49.259,28.37 c -0.47,0.856 -0.46,1.894 0.027,2.74 a 2.808,2.808 0 0 0 2.358,1.405 v 56.713 c -0.406,0.05 -0.798,0.183 -1.15,0.392 a 3.049,3.049 0 0 0 -0.955,4.145 z M 460.321,179.09 a 2.795,2.795 0 0 0 0.028,2.74 2.808,2.808 0 0 0 2.358,1.405 v 56.657 a 3.021,3.021 0 0 0 -2.358,4.285 l -49.258,28.37 a 2.949,2.949 0 0 0 -4.94,0 l -49.23,-28.342 c 0.45,-0.88 0.45,-1.921 0,-2.8 a 3.032,3.032 0 0 0 -2.385,-1.457 v -56.713 a 2.98,2.98 0 0 0 1.263,-0.364 3.05,3.05 0 0 0 1.235,-3.893 l 49.286,-28.399 a 3.007,3.007 0 0 0 3.957,0.896 c 0.353,-0.194 0.659,-0.461 0.898,-0.784 z m 59.643,-28.343 49.146,28.287 a 2.963,2.963 0 0 0 0.136,2.703 2.976,2.976 0 0 0 2.278,1.47 v 56.685 a 3.05,3.05 0 0 0 -2.386,4.285 l -49.174,28.37 a 2.98,2.98 0 0 0 -3.957,-0.896 2.804,2.804 0 0 0 -0.982,0.924 l -49.23,-28.342 c 0.55,-0.877 0.57,-1.986 0.053,-2.882 a 2.808,2.808 0 0 0 -2.523,-1.403 v -56.713 a 2.813,2.813 0 0 0 1.29,-0.392 3.021,3.021 0 0 0 1.236,-3.865 l 49.23,-28.37 a 3.033,3.033 0 0 0 4.883,0 v 0.14 z m 106.067,-4.873 a 3.26,3.26 0 0 0 -1.179,0.392 2.993,2.993 0 0 0 -1.207,3.865 l -49.23,28.315 a 3.092,3.092 0 0 0 -3.986,-0.897 3.197,3.197 0 0 0 -0.982,0.953 l -49.202,-28.343 c 0.46,-0.877 0.46,-1.923 0,-2.8 a 3.088,3.088 0 0 0 -2.442,-1.457 V 89.133 c 0.461,-0.025 0.911,-0.15 1.32,-0.364 a 3.077,3.077 0 0 0 1.234,-3.893 l 49.09,-28.315 a 3.035,3.035 0 0 0 3.986,0.869 c 0.373,-0.211 0.698,-0.497 0.954,-0.84 l 49.23,28.37 a 2.935,2.935 0 0 0 0,2.8 3.032,3.032 0 0 0 2.302,1.457 z m 52.037,33.216 c -0.47,0.856 -0.46,1.894 0.027,2.74 a 2.808,2.808 0 0 0 2.358,1.405 v 56.685 a 2.81,2.81 0 0 0 -1.178,0.392 3.05,3.05 0 0 0 -1.235,3.893 l -49.23,28.342 a 3.035,3.035 0 0 0 -3.986,-0.868 c -0.385,0.22 -0.712,0.527 -0.954,0.896 l -49.146,-28.342 a 2.963,2.963 0 0 0 0,-2.8 3.06,3.06 0 0 0 -2.414,-1.457 v -56.741 a 3.205,3.205 0 0 0 1.291,-0.364 3.021,3.021 0 0 0 1.207,-3.893 l 49.258,-28.37 a 3.007,3.007 0 0 0 3.958,0.895 c 0.357,-0.21 0.671,-0.485 0.926,-0.812 z m 277.67,-28.987 a 3.047,3.047 0 0 0 0,-2.8 2.807,2.807 0 0 0 -2.33,-1.457 V 89.161 a 2.811,2.811 0 0 0 1.235,-0.364 3.021,3.021 0 0 0 1.207,-3.893 l 49.23,-28.37 a 3.035,3.035 0 0 0 3.986,0.896 3.17,3.17 0 0 0 0.954,-0.869 l 49.202,28.343 a 2.795,2.795 0 0 0 -0.011,2.84 2.808,2.808 0 0 0 2.48,1.389 v 56.713 a 2.81,2.81 0 0 0 -1.262,0.392 2.993,2.993 0 0 0 -1.207,3.865 l -49.455,28.399 a 3.035,3.035 0 0 0 -3.985,-0.897 3.31,3.31 0 0 0 -0.926,0.84 z m -29.836,108.273 -24.615,-14.171 c 0.46,-0.878 0.46,-1.924 0,-2.8 a 2.976,2.976 0 0 0 -2.358,-1.457 v -56.685 a 2.558,2.558 0 0 0 1.235,-0.392 2.993,2.993 0 0 0 1.207,-3.865 l 49.174,-28.37 a 3.007,3.007 0 0 0 3.958,0.895 c 0.374,-0.22 0.699,-0.516 0.954,-0.868 l 49.202,28.343 a 2.935,2.935 0 0 0 0,2.8 3.116,3.116 0 0 0 2.386,1.485 v 56.657 c -0.444,0.04 -0.875,0.173 -1.263,0.392 a 3.021,3.021 0 0 0 -1.207,3.865 l -49.146,28.37 a 3.035,3.035 0 0 0 -3.986,-0.896 3.17,3.17 0 0 0 -0.954,0.868 z m -81.395,18.96 a 2.811,2.811 0 0 0 1.235,-0.364 3.05,3.05 0 0 0 1.235,-3.92 l 49.118,-28.343 a 2.977,2.977 0 0 0 4.911,0 l 24.56,14.34 24.67,14.002 a 3.019,3.019 0 0 0 0,2.801 3.089,3.089 0 0 0 2.358,1.456 v 56.713 a 2.811,2.811 0 0 0 -1.235,0.364 3.021,3.021 0 0 0 -1.207,3.893 l -49.258,28.37 a 3.035,3.035 0 0 0 -3.985,-0.895 2.58,2.58 0 0 0 -0.927,0.896 l -49.005,-28.37 a 3.02,3.02 0 0 0 0,-2.801 3.088,3.088 0 0 0 -2.358,-1.457 z M 792.33,241.432 a 3.032,3.032 0 0 0 -2.386,-1.456 v -56.713 c 0.445,-0.036 0.876,-0.17 1.263,-0.392 a 3.05,3.05 0 0 0 1.235,-3.893 l 49.23,-28.343 a 3.035,3.035 0 0 0 3.986,0.868 c 0.358,-0.208 0.672,-0.484 0.926,-0.812 l 49.202,28.343 a 2.963,2.963 0 0 0 0.128,2.733 2.976,2.976 0 0 0 2.314,1.468 v 56.685 a 3.034,3.034 0 0 0 -2.31,1.524 3.019,3.019 0 0 0 -0.104,2.76 l -49.258,28.343 a 3.064,3.064 0 0 0 -3.986,-0.868 c -0.384,0.22 -0.711,0.527 -0.954,0.896 l -49.23,-28.342 a 2.991,2.991 0 0 0 -0.056,-2.8 z m -59.615,31.115 -49.174,-28.314 c 0.45,-0.88 0.45,-1.921 0,-2.8 a 3.032,3.032 0 0 0 -2.386,-1.457 v -56.741 a 3.205,3.205 0 0 0 1.291,-0.364 3.021,3.021 0 0 0 1.207,-3.893 l 49.23,-28.37 a 3.035,3.035 0 0 0 3.986,0.895 c 0.358,-0.208 0.672,-0.484 0.926,-0.812 l 49.118,28.343 a 2.795,2.795 0 0 0 0.015,2.772 2.808,2.808 0 0 0 2.399,1.4 v 56.714 a 3.373,3.373 0 0 0 -1.207,0.392 3.077,3.077 0 0 0 -1.207,3.893 l -49.399,28.37 a 3.035,3.035 0 0 0 -3.957,-0.896 3.56,3.56 0 0 0 -0.842,0.868 z m -103.625,65.76 a 2.99,2.99 0 0 0 0,-2.801 2.807,2.807 0 0 0 -2.358,-1.457 v -56.713 a 2.811,2.811 0 0 0 1.235,-0.364 3.077,3.077 0 0 0 1.235,-3.893 l 49.23,-28.37 a 3.035,3.035 0 0 0 3.986,0.896 3.31,3.31 0 0 0 0.926,-0.84 l 49.09,28.286 a 3.019,3.019 0 0 0 0,2.801 3.087,3.087 0 0 0 2.358,1.456 v 56.685 c -0.424,0.036 -0.835,0.16 -1.207,0.364 a 3.077,3.077 0 0 0 -1.235,3.893 l -49.202,28.37 a 3.033,3.033 0 0 0 -4.968,0 l -49.09,-28.314 z m -59.643,28.342 -49.202,-28.343 c 0.55,-0.877 0.57,-1.985 0.054,-2.882 a 2.808,2.808 0 0 0 -2.524,-1.403 v -56.713 a 3.21,3.21 0 0 0 1.32,-0.364 3.021,3.021 0 0 0 1.178,-3.893 l 49.23,-28.342 a 3.064,3.064 0 0 0 3.986,0.868 c 0.355,-0.202 0.661,-0.48 0.898,-0.812 l 49.202,28.286 a 3.047,3.047 0 0 0 0,2.801 3.032,3.032 0 0 0 2.33,1.456 v 56.713 a 2.811,2.811 0 0 0 -1.207,0.364 3.021,3.021 0 0 0 -1.207,3.893 l -49.23,28.37 a 3.035,3.035 0 0 0 -3.986,-0.895 2.803,2.803 0 0 0 -0.842,0.896 z m -106.122,4.761 a 2.813,2.813 0 0 0 1.29,-0.392 3.021,3.021 0 0 0 1.236,-3.865 l 49.23,-28.37 a 3.035,3.035 0 0 0 3.985,0.868 c 0.362,-0.193 0.67,-0.472 0.898,-0.812 l 49.146,28.342 a 3.047,3.047 0 0 0 0,2.8 3.032,3.032 0 0 0 2.33,1.457 v 56.713 a 3.18,3.18 0 0 0 -1.207,0.364 3.021,3.021 0 0 0 -1.207,3.893 l -49.118,28.287 a 3.035,3.035 0 0 0 -3.985,-0.897 3.17,3.17 0 0 0 -0.955,0.869 l -49.202,-28.343 c 0.46,-0.877 0.46,-1.923 0,-2.8 a 2.807,2.807 0 0 0 -2.357,-1.457 z m -51.953,-33.104 a 3.047,3.047 0 0 0 0,-2.8 2.976,2.976 0 0 0 -2.386,-1.457 v -56.74 a 2.98,2.98 0 0 0 1.263,-0.365 3.077,3.077 0 0 0 1.235,-3.893 l 49.23,-28.37 a 3.063,3.063 0 0 0 3.986,0.896 c 0.352,-0.217 0.665,-0.492 0.926,-0.812 l 49.118,28.286 a 3.047,3.047 0 0 0 0.14,2.801 3.004,3.004 0 0 0 2.274,1.456 v 56.713 a 2.816,2.816 0 0 0 -1.151,0.364 3.077,3.077 0 0 0 -1.235,3.893 l -49.23,28.343 a 3.035,3.035 0 0 0 -3.986,-0.896 2.804,2.804 0 0 0 -0.982,0.952 l -49.202,-28.37 z"
             id="path82"
             opacity="0.3"
             style="stroke-width:1.52032" />
          <path
             d="m 249.138,280.042 a 2.584,2.584 0 0 0 1.938,1.233 v 47.612 c -0.346,0.034 -0.68,0.138 -0.983,0.308 a 2.545,2.545 0 0 0 -1.01,3.277 L 207.78,356.25 a 2.529,2.529 0 0 0 -4.184,0 l -41.274,-23.778 a 2.46,2.46 0 0 0 -0.06,-2.357 2.472,2.472 0 0 0 -2.018,-1.228 v -47.612 a 2.813,2.813 0 0 0 1.039,-0.337 2.517,2.517 0 0 0 1.039,-3.248 l 41.33,-23.807 a 2.5,2.5 0 0 0 4.1,0 l 41.302,23.779 a 2.487,2.487 0 0 0 0.084,2.38 z m 91.366,0 a 2.472,2.472 0 0 0 1.937,1.205 v 47.612 a 3.15,3.15 0 0 0 -0.983,0.336 2.517,2.517 0 0 0 -1.01,3.249 l -41.303,23.806 a 2.53,2.53 0 0 0 -3.341,-0.756 2.188,2.188 0 0 0 -0.815,0.784 l -41.19,-23.834 a 2.431,2.431 0 0 0 0,-2.353 2.472,2.472 0 0 0 -1.993,-1.232 v -47.612 a 2.25,2.25 0 0 0 1.039,-0.309 2.573,2.573 0 0 0 0.954,-3.22 l 41.33,-23.779 a 2.56,2.56 0 0 0 3.342,0.729 c 0.303,-0.173 0.563,-0.412 0.758,-0.7 l 41.303,23.778 a 2.543,2.543 0 0 0 -0.028,2.296 z M 299.37,411.341 a 2.57,2.57 0 0 0 0,-2.353 2.5,2.5 0 0 0 -2.05,-1.232 v -47.613 a 2.476,2.476 0 0 0 1.095,-0.308 2.573,2.573 0 0 0 1.039,-3.277 l 41.274,-23.778 a 2.615,2.615 0 0 0 3.341,0.756 c 0.312,-0.172 0.58,-0.411 0.787,-0.7 l 41.302,23.778 a 2.431,2.431 0 0 0 0.095,2.267 2.443,2.443 0 0 0 1.927,1.206 V 407.7 a 2.471,2.471 0 0 0 -1.94,1.252 2.46,2.46 0 0 0 -0.054,2.305 l -41.33,23.806 a 2.56,2.56 0 0 0 -3.342,-0.728 2.356,2.356 0 0 0 -0.814,0.756 z m 87.04,-55.119 -41.274,-23.806 a 2.57,2.57 0 0 0 0,-2.353 2.556,2.556 0 0 0 -2.021,-1.204 v -47.612 a 2.545,2.545 0 0 0 2.106,-3.585 l 41.302,-23.779 a 2.56,2.56 0 0 0 3.341,0.729 c 0.304,-0.173 0.563,-0.412 0.759,-0.7 l 41.33,23.806 a 2.487,2.487 0 0 0 0,2.268 2.556,2.556 0 0 0 1.91,1.205 v 47.612 a 2.19,2.19 0 0 0 -0.955,0.336 2.517,2.517 0 0 0 -1.04,3.249 l -41.302,23.806 a 2.529,2.529 0 0 0 -4.183,0 l 0.028,0.028 z m -91.449,55.315 a 2.587,2.587 0 0 0 3.51,0.952 c 0.3,-0.188 0.566,-0.424 0.786,-0.7 l 41.275,23.778 a 2.517,2.517 0 0 0 0.765,2.998 c 0.913,0.707 2.19,0.707 3.102,0 a 2.517,2.517 0 0 0 0.766,-2.998 l 41.33,-23.806 a 2.56,2.56 0 0 0 3.341,0.756 2.601,2.601 0 0 0 0.927,-3.501 2.444,2.444 0 0 0 -2.022,-1.232 V 360.17 c 0.375,-0.02 0.74,-0.125 1.067,-0.308 a 2.573,2.573 0 0 0 1.04,-3.277 l 41.302,-23.778 a 2.56,2.56 0 0 0 3.34,0.728 2.19,2.19 0 0 0 0.759,-0.672 l 41.302,23.778 a 2.487,2.487 0 0 0 0,2.269 2.471,2.471 0 0 0 1.91,1.204 v 47.613 a 2.644,2.644 0 0 0 -1.011,0.308 2.575,2.575 0 0 0 -0.161,4.612 2.589,2.589 0 0 0 2.716,-0.159 c 0.312,-0.182 0.58,-0.431 0.786,-0.728 l 41.303,23.778 a 2.46,2.46 0 0 0 0,2.297 2.587,2.587 0 0 0 3.51,0.952 2.517,2.517 0 0 0 1.038,-3.249 l 41.33,-23.806 a 2.568,2.568 0 0 0 4.439,-0.245 c 0.413,-0.816 0.36,-1.79 -0.142,-2.556 a 2.584,2.584 0 0 0 -2.022,-1.232 v -47.613 c 0.365,-0.024 0.72,-0.129 1.039,-0.308 a 2.545,2.545 0 0 0 1.039,-3.249 l 41.302,-23.806 a 2.503,2.503 0 0 0 3.314,0.756 c 0.31,-0.172 0.58,-0.411 0.786,-0.7 l 41.302,23.778 a 2.516,2.516 0 0 0 0.604,2.935 c 0.826,0.74 2.039,0.856 2.99,0.286 a 2.517,2.517 0 0 0 1.01,-3.249 l 41.331,-23.806 a 2.503,2.503 0 0 0 3.314,0.756 2.518,2.518 0 0 0 -1.04,-4.733 v -47.613 a 2.644,2.644 0 0 0 1.012,-0.308 2.573,2.573 0 0 0 1.038,-3.276 l 41.331,-23.807 a 2.56,2.56 0 0 0 3.341,0.757 c 0.307,-0.19 0.574,-0.438 0.786,-0.729 l 41.303,23.779 a 2.46,2.46 0 0 0 0,2.296 2.443,2.443 0 0 0 1.965,1.232 v 47.613 a 2.39,2.39 0 0 0 -1.039,0.336 2.515,2.515 0 0 0 -0.927,3.5 2.587,2.587 0 0 0 3.51,0.925 c 0.307,-0.19 0.574,-0.437 0.787,-0.728 l 41.274,23.778 a 2.599,2.599 0 0 0 0,2.325 2.559,2.559 0 0 0 3.44,1.106 2.546,2.546 0 0 0 1.109,-3.43 l 41.302,-23.807 a 2.558,2.558 0 0 0 3.538,0.728 2.544,2.544 0 0 0 0.73,-3.529 2.5,2.5 0 0 0 -1.965,-1.232 V 281.05 a 2.34,2.34 0 0 0 1.039,-0.308 2.517,2.517 0 0 0 1.01,-3.248 l 41.275,-23.779 a 2.57,2.57 0 0 0 3.552,0.742 2.556,2.556 0 0 0 0.744,-3.542 2.472,2.472 0 0 0 -1.938,-1.205 v -47.304 a 2.555,2.555 0 0 0 1.923,-1.281 c 0.4,-0.708 0.436,-1.564 0.099,-2.304 l 41.33,-23.806 a 2.56,2.56 0 0 0 3.504,0.676 2.552,2.552 0 0 0 0.764,-3.477 2.443,2.443 0 0 0 -1.937,-1.232 v -47.613 a 2.22,2.22 0 0 0 1.01,-0.308 2.545,2.545 0 0 0 1.04,-3.249 l -0.253,-0.448 a 2.587,2.587 0 0 0 -3.341,-0.756 c -0.313,0.182 -0.581,0.43 -0.787,0.728 L 938.898,95.67 a 2.375,2.375 0 0 0 0,-2.297 2.5,2.5 0 0 0 -1.965,-1.232 h -0.843 c -0.366,0.02 -0.721,0.125 -1.039,0.308 a 2.545,2.545 0 0 0 -1.01,3.277 l -41.19,23.75 a 2.53,2.53 0 0 0 -3.342,-0.756 2.573,2.573 0 0 0 -0.954,3.5 2.528,2.528 0 0 0 1.965,1.233 v 47.613 a 2.25,2.25 0 0 0 -1.039,0.308 2.49,2.49 0 0 0 -1.039,3.249 l -41.302,23.806 a 2.53,2.53 0 0 0 -3.342,-0.756 c -0.322,0.191 -0.6,0.449 -0.814,0.756 L 801.71,174.65 a 2.57,2.57 0 0 0 0,-2.353 2.559,2.559 0 0 0 -3.44,-1.106 2.546,2.546 0 0 0 -1.109,3.43 l -41.33,23.75 a 2.56,2.56 0 0 0 -3.342,-0.727 c -0.322,0.191 -0.6,0.449 -0.814,0.756 l -41.302,-23.778 a 2.487,2.487 0 0 0 0,-2.353 2.587,2.587 0 0 0 -3.51,-0.952 2.545,2.545 0 0 0 -1.039,3.277 l -41.302,23.778 a 2.5,2.5 0 0 0 -4.156,0 l -41.274,-23.778 a 2.487,2.487 0 0 0 0,-2.353 2.444,2.444 0 0 0 -2.022,-1.232 v -47.613 c 0.377,-0.03 0.741,-0.145 1.067,-0.336 a 2.552,2.552 0 0 0 0.005,-4.422 2.565,2.565 0 0 0 -2.56,-0.003 c -0.33,0.193 -0.609,0.462 -0.814,0.784 l -41.33,-23.806 a 2.52,2.52 0 0 0 0,-2.325 2.559,2.559 0 0 0 -3.318,-0.882 2.546,2.546 0 0 0 -1.203,3.207 l -41.247,23.75 a 2.57,2.57 0 0 0 -3.552,-0.742 2.556,2.556 0 0 0 -0.744,3.543 2.527,2.527 0 0 0 1.882,1.232 v 47.613 a 2.616,2.616 0 0 0 -0.955,0.336 2.517,2.517 0 0 0 -1.01,3.249 L 481.96,198.4 a 2.53,2.53 0 0 0 -3.342,-0.756 2.79,2.79 0 0 0 -0.814,0.784 l -41.499,-23.806 a 2.487,2.487 0 0 0 0,-2.381 2.559,2.559 0 0 0 -3.317,-0.883 2.546,2.546 0 0 0 -1.203,3.208 l -41.359,23.806 a 2.558,2.558 0 0 0 -3.538,-0.728 2.544,2.544 0 0 0 -0.73,3.529 2.528,2.528 0 0 0 1.937,1.232 v 47.612 c -0.358,0.03 -0.705,0.146 -1.01,0.336 a 2.517,2.517 0 0 0 -1.011,3.25 L 344.77,277.41 a 2.53,2.53 0 0 0 -3.34,-0.757 2.356,2.356 0 0 0 -0.815,0.757 l -41.303,-23.779 a 2.57,2.57 0 0 0 0,-2.352 2.559,2.559 0 0 0 -3.317,-0.883 2.546,2.546 0 0 0 -1.203,3.207 l -41.33,23.807 a 2.53,2.53 0 0 0 -3.342,-0.757 c -0.33,0.194 -0.609,0.462 -0.814,0.785 l -41.33,-23.89 a 2.431,2.431 0 0 0 0,-2.353 2.587,2.587 0 0 0 -3.51,-0.953 2.517,2.517 0 0 0 -1.011,3.25 l -41.33,23.805 a 2.559,2.559 0 0 0 -3.036,-0.937 2.548,2.548 0 0 0 0.705,4.915 v 47.612 c -0.346,0.034 -0.68,0.138 -0.983,0.308 a 2.545,2.545 0 0 0 -1.01,3.277 l 0.252,0.42 a 2.56,2.56 0 0 0 3.341,0.756 c 0.278,-0.194 0.533,-0.42 0.758,-0.672 l 41.106,23.722 a 2.46,2.46 0 0 0 0.113,2.257 2.471,2.471 0 0 0 1.909,1.216 h 0.505 a 2.5,2.5 0 0 0 2.02,-1.21 2.487,2.487 0 0 0 0.114,-2.347 l 41.303,-23.806 a 2.587,2.587 0 0 0 3.34,0.756 c 0.3,-0.187 0.566,-0.424 0.787,-0.7 l 41.303,23.778 a 2.431,2.431 0 0 0 0.086,2.257 2.443,2.443 0 0 0 1.907,1.216 v 47.613 a 2.39,2.39 0 0 0 -0.983,0.308 2.573,2.573 0 0 0 -0.814,3.5 h 0.112 z M 477.467,198.849 a 2.487,2.487 0 0 0 0,2.269 2.443,2.443 0 0 0 1.91,1.204 v 47.696 c -0.346,0.034 -0.68,0.139 -0.983,0.308 a 2.545,2.545 0 0 0 -1.011,3.277 l -41.078,23.666 a 2.587,2.587 0 0 0 -3.341,-0.756 2.188,2.188 0 0 0 -0.814,0.784 l -41.303,-23.778 a 2.487,2.487 0 0 0 0,-2.352 2.529,2.529 0 0 0 -2.274,-1.149 v -47.612 c 0.374,-0.02 0.74,-0.125 1.067,-0.308 a 2.517,2.517 0 0 0 1.01,-3.25 l 41.36,-23.833 a 2.53,2.53 0 0 0 3.34,0.756 c 0.302,-0.162 0.562,-0.392 0.759,-0.672 z m 50.063,-23.778 41.246,23.778 a 2.487,2.487 0 0 0 0,2.269 2.527,2.527 0 0 0 1.91,1.232 v 47.668 c -0.346,0.034 -0.68,0.139 -0.983,0.308 a 2.545,2.545 0 0 0 -1.011,3.277 l -41.302,23.779 a 2.56,2.56 0 0 0 -3.342,-0.757 c -0.33,0.194 -0.609,0.462 -0.814,0.785 l -41.302,-23.779 a 2.431,2.431 0 0 0 0,-2.352 2.472,2.472 0 0 0 -2.022,-1.233 v -47.64 a 2.472,2.472 0 0 0 2.038,-1.217 2.46,2.46 0 0 0 0.068,-2.368 l 41.33,-23.806 a 2.531,2.531 0 0 0 3.314,0.728 c 0.325,-0.163 0.612,-0.392 0.842,-0.672 z m 88.979,-4.09 a 3.15,3.15 0 0 0 -0.983,0.337 2.545,2.545 0 0 0 -1.04,3.249 l -41.302,23.806 a 2.53,2.53 0 0 0 -3.34,-0.756 c -0.323,0.203 -0.6,0.47 -0.815,0.784 l -41.274,-23.778 a 2.543,2.543 0 0 0 0,-2.381 2.64,2.64 0 0 0 -2.05,-1.232 v -47.613 a 2.588,2.588 0 0 0 1.123,-0.308 2.517,2.517 0 0 0 1.01,-3.249 l 41.275,-23.778 a 2.503,2.503 0 0 0 3.313,0.756 c 0.319,-0.174 0.59,-0.424 0.787,-0.728 l 41.33,23.806 a 2.431,2.431 0 0 0 0.095,2.267 2.443,2.443 0 0 0 1.927,1.206 l -0.056,47.613 z m 43.632,28.008 a 2.57,2.57 0 0 0 0,2.269 2.527,2.527 0 0 0 1.91,1.232 v 47.528 a 2.583,2.583 0 0 0 -1.922,1.3 2.57,2.57 0 0 0 -0.1,2.313 l -41.218,23.666 a 2.53,2.53 0 0 0 -3.341,-0.756 c -0.323,0.192 -0.6,0.45 -0.815,0.756 l -41.274,-23.778 a 2.431,2.431 0 0 0 0,-2.352 2.472,2.472 0 0 0 -2.022,-1.233 v -47.528 a 2.813,2.813 0 0 0 1.095,-0.308 2.573,2.573 0 0 0 1.011,-3.277 l 41.303,-23.778 a 2.587,2.587 0 0 0 3.341,0.756 c 0.3,-0.188 0.565,-0.424 0.786,-0.7 z m 233.046,-24.254 c 0.395,-0.725 0.395,-1.6 0,-2.325 a 2.472,2.472 0 0 0 -1.937,-1.204 v -47.613 c 0.357,-0.02 0.704,-0.125 1.01,-0.308 a 2.545,2.545 0 0 0 1.04,-3.249 L 934.602,96.23 a 2.56,2.56 0 0 0 3.341,0.756 c 0.307,-0.19 0.574,-0.437 0.787,-0.728 l 41.302,23.778 a 2.403,2.403 0 0 0 0.047,2.33 2.416,2.416 0 0 0 2.003,1.2 v 47.612 c -0.375,0.02 -0.74,0.125 -1.067,0.308 a 2.517,2.517 0 0 0 -1.011,3.249 l -41.33,23.806 a 2.56,2.56 0 0 0 -3.342,-0.728 3.03,3.03 0 0 0 -0.786,0.672 z m -25.017,90.8 -20.665,-11.876 c 0.38,-0.728 0.38,-1.596 0,-2.324 a 2.5,2.5 0 0 0 -1.994,-1.233 v -47.696 a 2.278,2.278 0 0 0 1.04,-0.336 2.517,2.517 0 0 0 1.038,-3.25 l 41.302,-23.777 a 2.56,2.56 0 0 0 3.342,0.728 c 0.318,-0.174 0.588,-0.424 0.786,-0.728 l 41.274,23.778 a 2.57,2.57 0 0 0 0,2.353 2.555,2.555 0 0 0 1.797,1.232 v 47.612 a 2.953,2.953 0 0 0 -1.067,0.336 2.545,2.545 0 0 0 -1.039,3.25 l -41.274,23.778 a 2.472,2.472 0 0 0 -4.127,0 L 868.17,265.534 Z m -68.37,15.908 c 0.366,-0.024 0.72,-0.13 1.04,-0.309 a 2.517,2.517 0 0 0 1.01,-3.248 l 41.303,-23.807 a 2.56,2.56 0 0 0 3.34,0.757 c 0.313,-0.183 0.582,-0.431 0.787,-0.729 l 20.637,11.876 20.441,11.763 a 2.543,2.543 0 0 0 0,2.296 2.5,2.5 0 0 0 1.965,1.233 v 47.612 a 2.39,2.39 0 0 0 -1.038,0.336 2.517,2.517 0 0 0 -1.011,3.249 L 846.97,356.25 a 2.56,2.56 0 0 0 -3.341,-0.728 2.805,2.805 0 0 0 -0.814,0.728 L 801.54,332.472 c 0.38,-0.729 0.38,-1.596 0,-2.325 a 2.556,2.556 0 0 0 -1.965,-1.232 z M 756,251.195 a 2.584,2.584 0 0 0 -2.022,-1.233 v -47.556 a 2.813,2.813 0 0 0 1.095,-0.308 2.517,2.517 0 0 0 1.01,-3.25 l 41.303,-23.805 a 2.53,2.53 0 0 0 3.341,0.756 c 0.317,-0.164 0.587,-0.405 0.786,-0.7 l 41.275,23.778 a 2.543,2.543 0 0 0 0,2.297 2.64,2.64 0 0 0 1.965,1.232 v 47.612 c -0.355,0.03 -0.7,0.135 -1.01,0.308 a 2.573,2.573 0 0 0 -1.04,3.277 l -41.302,23.779 a 2.56,2.56 0 0 0 -3.341,-0.757 3,3 0 0 0 -0.815,0.757 l -41.274,-23.779 a 2.515,2.515 0 0 0 0.028,-2.408 z m -50.007,26.102 -41.275,-23.778 a 2.431,2.431 0 0 0 -0.058,-2.348 2.444,2.444 0 0 0 -2.02,-1.209 v -47.556 a 2.476,2.476 0 0 0 1.095,-0.308 2.545,2.545 0 0 0 1.011,-3.277 l 41.303,-23.778 a 2.53,2.53 0 0 0 3.341,0.756 c 0.304,-0.182 0.57,-0.42 0.786,-0.7 l 41.275,23.778 c -0.33,0.73 -0.33,1.566 0,2.297 a 2.584,2.584 0 0 0 2.133,1.232 v 47.612 a 2.813,2.813 0 0 0 -1.01,0.308 2.545,2.545 0 0 0 -1.011,3.277 l -41.33,23.807 a 2.53,2.53 0 0 0 -3.342,-0.757 2.47,2.47 0 0 0 -0.898,0.644 z m -87.042,55.147 a 2.57,2.57 0 0 0 0,-2.353 2.528,2.528 0 0 0 -1.993,-1.232 v -47.612 c 0.366,-0.02 0.721,-0.126 1.039,-0.309 a 2.573,2.573 0 0 0 1.039,-3.276 l 41.33,-23.723 a 2.587,2.587 0 0 0 3.341,0.757 c 0.3,-0.188 0.566,-0.425 0.787,-0.7 l 41.358,23.75 a 2.515,2.515 0 0 0 0,2.324 2.584,2.584 0 0 0 1.994,1.233 v 47.612 c -0.36,0.026 -0.708,0.142 -1.011,0.336 a 2.49,2.49 0 0 0 -1.01,3.249 l -41.303,23.778 a 2.56,2.56 0 0 0 -3.342,-0.728 2.132,2.132 0 0 0 -0.814,0.756 z m -50.034,23.75 -41.275,-23.75 a 2.46,2.46 0 0 0 -0.042,-2.377 2.472,2.472 0 0 0 -2.036,-1.236 v -47.612 c 0.375,-0.02 0.74,-0.126 1.067,-0.309 a 2.545,2.545 0 0 0 1.04,-3.248 l 41.302,-23.807 a 2.529,2.529 0 0 0 4.1,0 l 41.274,23.75 a 2.46,2.46 0 0 0 0.087,2.307 2.472,2.472 0 0 0 1.962,1.222 v 47.613 c -0.355,0.03 -0.7,0.135 -1.01,0.308 a 2.545,2.545 0 0 0 -1.011,3.277 l -41.303,23.778 a 2.56,2.56 0 0 0 -3.341,-0.728 2.27,2.27 0 0 0 -0.73,0.812 z m -89.035,4.005 a 2.472,2.472 0 0 0 2.038,-1.217 2.46,2.46 0 0 0 0.068,-2.368 l 41.358,-23.778 a 2.531,2.531 0 0 0 3.314,0.728 c 0.315,-0.153 0.586,-0.384 0.786,-0.672 l 41.274,23.778 a 2.431,2.431 0 0 0 0.078,2.287 2.443,2.443 0 0 0 1.944,1.214 v 47.613 c -0.35,0.03 -0.688,0.146 -0.983,0.336 a 2.517,2.517 0 0 0 -1.039,3.249 l -41.33,23.806 a 2.587,2.587 0 0 0 -3.342,-0.756 c -0.32,0.184 -0.59,0.444 -0.786,0.756 L 481.96,411.369 a 2.375,2.375 0 0 0 0,-2.297 2.443,2.443 0 0 0 -1.966,-1.232 l -0.112,-47.64 z m -43.577,-27.755 a 2.431,2.431 0 0 0 -0.012,-2.378 2.444,2.444 0 0 0 -2.038,-1.235 v -47.612 c 0.375,-0.02 0.74,-0.126 1.067,-0.309 a 2.573,2.573 0 0 0 1.04,-3.248 l 41.302,-23.807 a 2.56,2.56 0 0 0 3.341,0.757 c 0.29,-0.18 0.546,-0.407 0.758,-0.673 l 41.303,23.779 a 2.515,2.515 0 0 0 0,2.24 2.584,2.584 0 0 0 1.937,1.233 v 47.612 c -0.35,0.03 -0.687,0.146 -0.983,0.336 a 2.49,2.49 0 0 0 -1.01,3.249 l -41.331,23.778 a 2.56,2.56 0 0 0 -3.341,-0.728 c -0.322,0.204 -0.6,0.47 -0.815,0.784 z"
             id="path84"
             style="stroke-width:1.3127" />
        </g>
      </g>
    </g>
  </g>
  <rect
     style="opacity:0.4;fill:#ffffff;stroke:none;stroke-width:30.0001;stroke-linecap:round;stroke-linejoin:round;stroke-opacity:0.821355;paint-order:fill markers stroke"
     id="rect331"
     width="1000"
     height="1000"
     x="0"
     y="0" />
</svg>
