<?xml version="1.0" encoding="UTF-8" standalone="no"?>
<svg
   height="24px"
   viewBox="0 -960 960 960"
   width="24px"
   fill="#1f1f1f"
   version="1.1"
   id="svg1"
   sodipodi:docname="call_24dp_1F1F1F_FILL0_wght400_GRAD0_opsz24 (1).svg"
   inkscape:version="1.4.2 (f4327f4, 2025-05-13)"
   xmlns:inkscape="http://www.inkscape.org/namespaces/inkscape"
   xmlns:sodipodi="http://sodipodi.sourceforge.net/DTD/sodipodi-0.dtd"
   xmlns="http://www.w3.org/2000/svg"
   xmlns:svg="http://www.w3.org/2000/svg">
  <defs
     id="defs1" />
  <sodipodi:namedview
     id="namedview1"
     pagecolor="#ffffff"
     bordercolor="#000000"
     borderopacity="0.25"
     inkscape:showpageshadow="2"
     inkscape:pageopacity="0.0"
     inkscape:pagecheckerboard="0"
     inkscape:deskcolor="#d1d1d1"
     inkscape:zoom="23.71754"
     inkscape:cx="12.901844"
     inkscape:cy="10.393152"
     inkscape:window-width="1920"
     inkscape:window-height="1009"
     inkscape:window-x="-8"
     inkscape:window-y="-8"
     inkscape:window-maximized="1"
     inkscape:current-layer="svg1" />
  <path
     d="m 904,-1.5e-5 q -166.66669,0 -329.33335,-72.666661 Q 411.99999,-145.33334 278.66666,-278.66667 145.33333,-412 72.66666,-574.66666 0,-737.33332 0,-903.99998 q 0,-24 16,-40 16,-16 39.99999,-16 h 216 q 18.66667,0 33.33333,12.66666 14.66667,12.66667 17.33333,30 l 34.66667,186.66667 q 2.66667,21.33333 -1.33333,35.99999 -4,14.66667 -14.66667,25.33334 l -129.33333,130.66666 q 26.66667,49.33333 63.33333,95.33333 36.66667,46 80.66667,88.66667 41.33333,41.33333 86.66666,76.66666 45.33333,35.33333 96,64.66666 l 125.33333,-125.33332 q 12,-12 31.33333,-18 19.33333,-6 38,-3.33334 l 183.99999,37.33334 Q 936,-317.33333 948,-303.33333 q 12,14 12,31.33333 v 215.99999 q 0,24 -16,39.999995 -16,16 -40,16 z M 161.33333,-640 249.33332,-728 226.66666,-853.33333 H 107.99999 q 6.66667,54.66667 18.66667,108 12,53.33333 34.66667,105.33333 z m 477.33332,477.33333 q 52,22.66666 105.99999,36 54,13.33333 108.66667,17.33333 V -226.66667 L 727.99998,-252 Z M 161.33333,-640 Z m 477.33332,477.33333 z"
     id="path1"
     style="stroke-width:1" />
</svg>
