<?xml version="1.0" encoding="UTF-8" standalone="no"?>
<svg
   height="24px"
   viewBox="0 -960 960 960"
   width="24px"
   fill="#1f1f1f"
   version="1.1"
   id="svg1"
   sodipodi:docname="counter_1_24dp_1F1F1F_FILL0_wght400_GRAD0_opsz24.svg"
   inkscape:version="1.4.2 (f4327f4, 2025-05-13)"
   xmlns:inkscape="http://www.inkscape.org/namespaces/inkscape"
   xmlns:sodipodi="http://sodipodi.sourceforge.net/DTD/sodipodi-0.dtd"
   xmlns="http://www.w3.org/2000/svg"
   xmlns:svg="http://www.w3.org/2000/svg">
  <defs
     id="defs1" />
  <sodipodi:namedview
     id="namedview1"
     pagecolor="#ffffff"
     bordercolor="#000000"
     borderopacity="0.25"
     inkscape:showpageshadow="2"
     inkscape:pageopacity="0.0"
     inkscape:pagecheckerboard="0"
     inkscape:deskcolor="#d1d1d1"
     inkscape:zoom="33.541667"
     inkscape:cx="12.014907"
     inkscape:cy="12"
     inkscape:window-width="1920"
     inkscape:window-height="1009"
     inkscape:window-x="-8"
     inkscape:window-y="-8"
     inkscape:window-maximized="1"
     inkscape:current-layer="svg1" />
  <path
     d="M 480,0 Q 380.4,0 292.8,-37.8 205.2,-75.6 140.4,-140.4 75.6,-205.2 37.8,-292.8 0,-380.4 0,-480 q 0,-99.6 37.8,-187.2 37.8,-87.6 102.6,-152.4 64.8,-64.8 152.4,-102.6 87.6,-37.8 187.2,-37.8 99.6,0 187.2,37.8 87.6,37.8 152.4,102.6 64.8,64.8 102.6,152.4 37.8,87.6 37.8,187.2 0,99.6 -37.8,187.2 -37.8,87.6 -102.6,152.4 Q 754.8,-75.6 667.2,-37.8 579.6,0 480,0 Z m 0,-96 Q 640.8,-96 752.4,-207.6 864,-319.2 864,-480 864,-640.8 752.4,-752.4 640.8,-864 480,-864 319.2,-864 207.6,-752.4 96,-640.8 96,-480 96,-319.2 207.6,-207.6 319.2,-96 480,-96 Z m 0,-384 z m -24,240 h 96 V -720 H 360 v 96 h 96 z"
     id="path1"
     style="stroke-width:1" />
</svg>
