<?xml version="1.0" encoding="UTF-8" standalone="no"?>
<!-- Created with Inkscape (http://www.inkscape.org/) -->

<svg
   version="1.1"
   id="svg9"
   width="666.66669"
   height="666.66718"
   viewBox="0 0 666.66668 666.66717"
   sodipodi:docname="2023_Facebook_icon - Copy.svg"
   inkscape:version="1.4.2 (f4327f4, 2025-05-13)"
   xmlns:inkscape="http://www.inkscape.org/namespaces/inkscape"
   xmlns:sodipodi="http://sodipodi.sourceforge.net/DTD/sodipodi-0.dtd"
   xmlns="http://www.w3.org/2000/svg"
   xmlns:svg="http://www.w3.org/2000/svg">
  <sodipodi:namedview
     id="namedview1"
     pagecolor="#ffffff"
     bordercolor="#000000"
     borderopacity="0.25"
     inkscape:showpageshadow="2"
     inkscape:pageopacity="0.0"
     inkscape:pagecheckerboard="0"
     inkscape:deskcolor="#d1d1d1"
     inkscape:zoom="1.2074991"
     inkscape:cx="332.91951"
     inkscape:cy="333.33359"
     inkscape:window-width="1920"
     inkscape:window-height="1009"
     inkscape:window-x="-8"
     inkscape:window-y="-8"
     inkscape:window-maximized="1"
     inkscape:current-layer="svg9" />
  <defs
     id="defs13">
    <clipPath
       clipPathUnits="userSpaceOnUse"
       id="clipPath1">
      <path
         d="m -447.9175,426.3964 h 700 v -700 h -700 z"
         id="path1"
         style="stroke-width:0.999998" />
    </clipPath>
    <clipPath
       clipPathUnits="userSpaceOnUse"
       id="clipPath2">
      <path
         d="M -600,350 H 100 V -350 H -600 Z"
         id="path2"
         style="stroke-width:0.999998" />
    </clipPath>
  </defs>
  <g
     id="g27"
     transform="matrix(1.3333333,0,0,-1.3333333,666.66665,333.33334)"
     clip-path="url(#clipPath2)"
     style="fill:#8e8e8e;fill-opacity:1">
    <path
       d="m 0,0 c 0,138.071 -111.929,250 -250,250 -138.071,0 -250,-111.929 -250,-250 0,-117.245 80.715,-215.622 189.606,-242.638 v 166.242 h -51.552 V 0 h 51.552 v 32.919 c 0,85.092 38.508,124.532 122.048,124.532 15.838,0 43.167,-3.105 54.347,-6.211 V 81.986 c -5.901,0.621 -16.149,0.932 -28.882,0.932 -40.993,0 -56.832,-15.528 -56.832,-55.9 V 0 h 81.659 l -14.028,-76.396 h -67.631 V -248.169 C -95.927,-233.218 0,-127.818 0,0"
       style="fill:#8e8e8e;fill-opacity:1;fill-rule:nonzero;stroke:none"
       id="path29" />
  </g>
  <g
     id="g31"
     transform="matrix(1.3333333,0,0,-1.3333333,463.88999,435.1952)"
     clip-path="url(#clipPath1)">
    <path
       d="M 0,0 14.029,76.396 H -67.63 v 27.019 c 0,40.372 15.838,55.899 56.831,55.899 12.733,0 22.981,-0.31 28.882,-0.931 v 69.253 c -11.18,3.106 -38.509,6.212 -54.347,6.212 -83.539,0 -122.048,-39.441 -122.048,-124.533 V 76.396 h -51.552 V 0 h 51.552 v -166.242 c 19.343,-4.798 39.568,-7.362 60.394,-7.362 10.254,0 20.358,0.632 30.288,1.831 L -67.63,0 Z"
       style="fill:#ffffff;fill-opacity:1;fill-rule:nonzero;stroke:none"
       id="path33" />
  </g>
</svg>
