<?xml version="1.0" encoding="UTF-8" standalone="no"?>
<!-- Created with Inkscape (http://www.inkscape.org/) -->

<svg
   width="250"
   height="250"
   viewBox="0 0 66.14583 66.145835"
   version="1.1"
   id="svg1291"
   sodipodi:docname="LinkedIn_2021.svg"
   inkscape:version="1.4.2 (f4327f4, 2025-05-13)"
   xmlns:inkscape="http://www.inkscape.org/namespaces/inkscape"
   xmlns:sodipodi="http://sodipodi.sourceforge.net/DTD/sodipodi-0.dtd"
   xmlns="http://www.w3.org/2000/svg"
   xmlns:svg="http://www.w3.org/2000/svg"
   xmlns:rdf="http://www.w3.org/1999/02/22-rdf-syntax-ns#"
   xmlns:cc="http://creativecommons.org/ns#"
   xmlns:dc="http://purl.org/dc/elements/1.1/">
  <defs
     id="defs1285" />
  <sodipodi:namedview
     id="base"
     pagecolor="#ffffff"
     bordercolor="#666666"
     borderopacity="1.0"
     inkscape:pageopacity="0.0"
     inkscape:pageshadow="2"
     inkscape:zoom="0.35"
     inkscape:cx="311.42857"
     inkscape:cy="-215.71429"
     inkscape:document-units="px"
     inkscape:current-layer="layer1"
     showgrid="false"
     units="px"
     fit-margin-top="0"
     fit-margin-left="0"
     fit-margin-right="0"
     fit-margin-bottom="0"
     inkscape:window-width="1920"
     inkscape:window-height="1009"
     inkscape:window-x="-8"
     inkscape:window-y="-8"
     inkscape:window-maximized="1"
     inkscape:showpageshadow="2"
     inkscape:pagecheckerboard="0"
     inkscape:deskcolor="#d1d1d1" />
  <metadata
     id="metadata1288">
    <rdf:RDF>
      <cc:Work
         rdf:about="">
        <dc:format>image/svg+xml</dc:format>
        <dc:type
           rdf:resource="http://purl.org/dc/dcmitype/StillImage" />
      </cc:Work>
    </rdf:RDF>
  </metadata>
  <g
     inkscape:label="Layer 1"
     inkscape:groupmode="layer"
     id="layer1"
     transform="translate(171.37441,202.2851)">
    <path
       style="fill:#ffffff;fill-rule:evenodd;stroke-width:0.264583"
       inkscape:connector-curvature="0"
       d="m -110.01943,-202.2851 h -56.36884 c -2.69623,0 -4.98614,2.13242 -4.98614,4.75935 v 56.62398 c 0,2.63009 1.50246,4.7625 4.19869,4.7625 h 56.36884 c 2.69938,0 5.5783,-2.13241 5.5783,-4.7625 v -56.62398 c 0,-2.62693 -2.09147,-4.75935 -4.79085,-4.75935"
       class="bug-text-color"
       id="path1901" />
    <path
       style="fill:#0a66c2;fill-rule:evenodd;stroke-width:0.264583"
       inkscape:connector-curvature="0"
       d="m -110.01943,-202.2851 h -56.36884 c -2.69623,0 -4.98614,2.13242 -4.98614,4.75935 v 56.62398 c 0,2.63009 1.50246,4.7625 4.19869,4.7625 h 56.36884 c 2.69938,0 5.5783,-2.13241 5.5783,-4.7625 v -56.62398 c 0,-2.62693 -2.09147,-4.75935 -4.79085,-4.75935 z m -36.15657,25.19841 h 8.90449 v 4.53887 h 0.0976 c 1.35757,-2.4474 5.36726,-4.93259 10.32505,-4.93259 9.51555,0 12.17083,5.05228 12.17083,14.41034 v 17.4814 h -9.4494 v -15.75846 c 0,-4.18924 -1.67255,-7.86505 -5.5846,-7.86505 -4.7499,0 -7.01461,3.21594 -7.01461,8.49501 v 15.1285 h -9.4494 z m -15.74901,31.49802 h 9.44941 v -31.49802 h -9.44941 z m 10.63058,-42.52232 a 5.9043032,5.9043032 0 1 1 -11.8086,0.003 5.9043032,5.9043032 0 0 1 11.8086,-0.003 z"
       class="background"
       id="path1903" />
  </g>
</svg>
