<?xml version="1.0" encoding="UTF-8" standalone="no"?>
<svg
   height="24px"
   viewBox="0 -960 960 960"
   width="24px"
   fill="#1f1f1f"
   version="1.1"
   id="svg1"
   sodipodi:docname="location_on_24dp_1F1F1F_FILL0_wght400_GRAD0_opsz24 (1).svg"
   inkscape:version="1.4.2 (f4327f4, 2025-05-13)"
   xmlns:inkscape="http://www.inkscape.org/namespaces/inkscape"
   xmlns:sodipodi="http://sodipodi.sourceforge.net/DTD/sodipodi-0.dtd"
   xmlns="http://www.w3.org/2000/svg"
   xmlns:svg="http://www.w3.org/2000/svg">
  <defs
     id="defs1" />
  <sodipodi:namedview
     id="namedview1"
     pagecolor="#ffffff"
     bordercolor="#000000"
     borderopacity="0.25"
     inkscape:showpageshadow="2"
     inkscape:pageopacity="0.0"
     inkscape:pagecheckerboard="0"
     inkscape:deskcolor="#d1d1d1"
     inkscape:zoom="33.541667"
     inkscape:cx="12.014907"
     inkscape:cy="12"
     inkscape:window-width="1920"
     inkscape:window-height="1009"
     inkscape:window-x="-8"
     inkscape:window-y="-8"
     inkscape:window-maximized="1"
     inkscape:current-layer="svg1" />
  <path
     d="m 480,-480 q 39.6,0 67.8,-28.2 28.2,-28.2 28.2,-67.8 0,-39.6 -28.2,-67.8 -28.2,-28.2 -67.8,-28.2 -39.6,0 -67.8,28.2 -28.2,28.2 -28.2,67.8 0,39.6 28.2,67.8 28.2,28.2 67.8,28.2 z m 0,352.8 Q 626.4,-261.6 697.2,-371.4 768,-481.2 768,-566.4 768,-697.2 684.6,-780.6 601.2,-864 480,-864 q -121.2,0 -204.6,83.4 -83.4,83.4 -83.4,214.2 0,85.2 70.8,195 70.8,109.8 217.2,244.2 z M 480,0 Q 286.8,-164.4 191.4,-305.4 96,-446.4 96,-566.4 96,-746.4 211.8,-853.2 327.6,-960 480,-960 q 152.4,0 268.2,106.8 115.8,106.8 115.8,286.8 0,120 -95.4,261 Q 673.2,-164.4 480,0 Z m 0,-576 z"
     id="path1"
     style="stroke-width:1" />
</svg>
