<?xml version="1.0" encoding="UTF-8" standalone="no"?>
<!-- Created with Inkscape (http://www.inkscape.org/) -->

<svg
   width="1600"
   height="798.60999"
   viewBox="0 0 423.33332 211.29889"
   version="1.1"
   id="svg1338"
   inkscape:version="1.2.1 (9c6d41e410, 2022-07-14)"
   sodipodi:docname="Colegiul Psihologilor din România.svg"
   inkscape:export-filename="Colegiul Psihologilor din România.png"
   inkscape:export-xdpi="96"
   inkscape:export-ydpi="96"
   xmlns:inkscape="http://www.inkscape.org/namespaces/inkscape"
   xmlns:sodipodi="http://sodipodi.sourceforge.net/DTD/sodipodi-0.dtd"
   xmlns="http://www.w3.org/2000/svg"
   xmlns:svg="http://www.w3.org/2000/svg">
  <sodipodi:namedview
     id="namedview1340"
     pagecolor="#ffffff"
     bordercolor="#cccccc"
     borderopacity="0"
     inkscape:showpageshadow="0"
     inkscape:pageopacity="0"
     inkscape:pagecheckerboard="false"
     inkscape:deskcolor="#d1d1d1"
     inkscape:document-units="mm"
     showgrid="false"
     inkscape:zoom="0.52221046"
     inkscape:cx="789.91141"
     inkscape:cy="503.62836"
     inkscape:window-width="1920"
     inkscape:window-height="1009"
     inkscape:window-x="-8"
     inkscape:window-y="-8"
     inkscape:window-maximized="1"
     inkscape:current-layer="layer1"
     showborder="true"
     borderlayer="true"
     shape-rendering="auto" />
  <defs
     id="defs1335" />
  <g
     inkscape:label="Layer 1"
     inkscape:groupmode="layer"
     id="layer1">
    <g
       id="g1967"
       transform="translate(70.428186,-40.676343)">
      <g
         id="g1154"
         transform="matrix(0.25053206,0,0,0.25053206,-204.37599,-72.512708)"
         style="display:block;stroke-width:1.05609">
        <path
           fill="#343132"
           d="m 2214.1787,1011.332 a 36.4,36.86 45.8 0 1 -1.0485,51.793 36.4,36.86 45.8 0 1 -51.8021,-0.398 36.4,36.86 45.8 0 1 1.0485,-51.793 36.4,36.86 45.8 0 1 51.8021,0.398 z m -51.9453,38.3675 c 4.95,12.28 17.62,18.19 30.46,16.05 31.19,-5.18 30.58,-52.57 0.14,-57.37 -24.67,-3.89 -39.36,19.58 -30.6,41.32 z"
           id="path178"
           style="stroke-width:1.11532" />
        <path
           fill="#343132"
           d="m 2195.0834,1037.6595 a 0.3,0.3 0 0 0 -0.06,0.56 c 6.17,3.08 7.81,9.5 9.73,15.75 a 1.62,1.62 0 0 1 -1.55,2.1 h -6.55 a 2.76,2.76 0 0 1 -2.67,-2.06 c -1.48,-5.72 -2.84,-14.66 -11.36,-12.59 q -0.45,0.11 -0.45,0.57 v 12.24 q 0,1.75 -1.75,1.75 h -5.69 a 1.78,1.77 0 0 1 -1.78,-1.77 q -0.08,-16.67 -0.04,-33.47 c 0,-3.33 1.85,-4.29 4.95,-4.47 8.05,-0.48 24.03,-1.68 25.33,9.69 0.67,5.83 -2.28,10.37 -8.11,11.7 z m -12.72,-13.72 0.06,9.78 a 0.27,0.27 0 0 0 0.27,0.27 l 5.23,-0.03 a 4.77,5.3 89.7 0 0 5.27,-4.8 v -0.78 a 4.77,5.3 89.7 0 0 -5.33,-4.74 l -5.23,0.03 a 0.27,0.27 0 0 0 -0.27,0.27 z"
           id="path182"
           style="stroke-width:1.11532" />
        <path
           fill="#343132"
           d="m 704.53332,1053.4895 c -0.06,-4.79 -1.26,-8.68 -5.51,-10.7 a 1.84,1.85 42 0 1 -0.17,-3.24 c 4.86,-2.98 16.59,-5.69 18.78,2.46 0.59,2.18 0.83,4.81 0.71,7.32 q -1.94,41.54 -0.72,83.11 c 0.09,3.13 0.45,6.2 0.92,9.32 q 0.11,0.72 -0.63,0.72 h -12.75 a 0.55,0.56 0 0 1 -0.55,-0.56 q 0.52,-44.22 -0.08,-88.43 z"
           id="path186"
           style="stroke-width:1.11532" />
        <path
           fill="#343132"
           d="m 1002.6534,1042.5095 a 0.97,0.98 14.2 0 1 -0.58,-0.98 c 0.37,-4.28 11.41,-5.26 13.91,-4.8 5.56,1.01 6.48,6.29 6.38,11.53 q -0.17,8.84 -0.52,17.69 c -0.74,19.08 -0.49,40.21 -0.39,56.53 q 0.06,8.95 1.07,19.35 0.07,0.66 -0.59,0.65 h -12.5 q -0.52,0 -0.52,-0.52 0.02,-42.5 0.03,-84.97 c 0,-5.66 -0.46,-11.97 -6.29,-14.48 z"
           id="path188"
           style="stroke-width:1.11532" />
        <path
           fill="#343132"
           d="m 1583.6934,1086.3795 a 0.38,0.38 0 0 0 0.7,0.2 q 5.77,-9.3 15.2,-13.06 c 14.49,-5.78 27.33,0.73 27.33,17.18 -0.01,17.02 -0.6,34.26 1.26,51.2 q 0.07,0.59 -0.52,0.58 h -12.24 q -1.07,0 -1.06,-1.07 0.17,-21.3 0.36,-40.18 c 0.1,-9.49 -1.08,-19.75 -13.8,-18.64 q -10.13,0.89 -16.98,8.91 -0.36,0.43 -0.35,0.99 l 1.36,49.6 q 0.01,0.39 -0.38,0.39 h -12.39 q -0.53,0 -0.52,-0.52 0.21,-44 -0.22,-87.98 c -0.03,-3.83 -1.39,-9.91 -5.7,-11.2 a 1.72,1.73 38.2 0 1 -0.37,-3.14 c 6.14,-3.6 18.51,-6.13 19.24,4.88 q 0.29,4.24 0.21,5.39 -1.25,18.36 -1.13,36.47 z"
           id="path190"
           style="stroke-width:1.11532" />
        <path
           fill="#343132"
           d="m 1724.9634,1041.9695 c -1.26,-4.7 11.4,-5.51 13.89,-5.14 5.86,0.86 6.62,7.87 6.38,12.9 q -2.08,42.23 -0.78,84.5 0.07,2.23 0.93,7.68 0.09,0.57 -0.5,0.57 h -12.92 q -0.41,0 -0.41,-0.41 0.33,-43.68 -0.04,-87.35 c -0.04,-4.29 -1.09,-10.53 -5.89,-12.06 q -0.52,-0.17 -0.66,-0.69 z"
           id="path192"
           style="stroke-width:1.11532" />
        <path
           fill="#343132"
           d="m 1955.0334,1042.0995 q -0.78,-1.94 1.3,-3.01 c 6.73,-3.45 18.3,-4.79 18.76,5.84 0.26,6.11 -0.29,13.39 -0.45,18.22 q -1.17,36 -0.06,72.01 c 0.07,2.1 0.57,4.54 0.81,6.79 q 0.06,0.53 -0.47,0.53 h -12.72 q -0.59,0 -0.58,-0.59 0.12,-43.07 0.13,-86.09 c 0,-4.91 -1.19,-11.47 -6.04,-13.06 q -0.49,-0.16 -0.68,-0.64 z"
           id="path194"
           style="stroke-width:1.11532" />
        <circle
           fill="#343132"
           cx="1537.5734"
           cy="1052.6494"
           r="7.3499999"
           id="circle196"
           style="stroke-width:1.11532" />
        <circle
           fill="#343132"
           cx="1927.4333"
           cy="1052.6494"
           r="7.3499999"
           id="circle198"
           style="stroke-width:1.11532" />
        <circle
           fill="#343132"
           cx="892.03333"
           cy="1052.6494"
           r="7.3600001"
           id="circle200"
           style="stroke-width:1.11532" />
        <path
           fill="#343132"
           d="m 567.66332,1143.7195 c -29.77,-4.69 -37.47,-37.68 -30.75,-62.22 5.33,-19.45 20.68,-32.25 40.6,-32.96 9.55,-0.35 23.43,2.56 29.22,11.23 a 1.19,1.19 0 0 1 0.16,0.95 q -1.8,6.96 -7.5,11.47 a 2.12,2.12 0 0 1 -3.37,-1.13 c -5.12,-20.09 -30.47,-16.94 -39.78,-2.53 -13.31,20.59 -5.44,68.77 27.41,66.18 q 14.24,-1.12 22.77,-12.55 0.35,-0.47 0.46,0.11 c 1.67,8.88 -5.76,15.7 -13.19,18.68 q -12.32,4.93 -26.03,2.77 z"
           id="path202"
           style="stroke-width:1.11532" />
        <path
           fill="#343132"
           d="m 1397.9234,1142.5095 q -0.33,0 -0.33,-0.33 0.23,-31.19 0.32,-62.6 c 0.02,-8.33 0.17,-19.15 -3.65,-26.75 a 1.8,1.8 0 0 1 1.5,-2.6 c 12.34,-0.78 29.88,-2.29 40.13,1.3 q 14.65,5.13 16.8,22.9 c 2.79,23.14 -20.33,35.65 -40.58,32.3 q -0.63,-0.1 -0.61,0.54 l 1.17,34.83 q 0.02,0.37 -0.35,0.37 z m 14.21,-43.1 c 10.13,2.85 21.96,0.1 26.4,-10.05 3.06,-7.01 1.92,-17.36 -2.39,-23.83 -5.42,-8.14 -14.5,-8.86 -23.78,-7.95 q -0.42,0.04 -0.42,0.46 l -0.35,40.65 a 0.73,0.73 0 0 0 0.54,0.72 z"
           id="path204"
           style="stroke-width:1.11532" />
        <path
           fill="#343132"
           d="m 644.17332,1144.0095 c -11.56,-1.67 -19.53,-10.7 -22.68,-21.48 -5.46,-18.73 0.71,-41.52 20.49,-48.84 15.7,-5.8 32.43,-0.12 38.83,15.9 9.95,24.93 -5.3,58.94 -36.64,54.42 z m 0.4,-9.68 c 11.04,8.55 21.49,-1.42 24.09,-12.1 3.14,-12.93 0.59,-40.3 -16.83,-43.35 -13.48,-2.36 -18.07,13.22 -18.48,23.12 -0.41,10.16 2.44,25.53 11.22,32.33 z"
           id="path208"
           style="stroke-width:1.11532" />
        <path
           fill="#343132"
           d="m 781.61332,1140.1995 c -14.83,7.96 -35.02,4.86 -41.69,-12.62 -5.85,-15.34 -4.24,-36.53 8.16,-48.91 q 5.97,-5.96 15.02,-6.82 c 20.46,-1.94 29.42,12.09 28.21,30.82 q -0.03,0.47 -0.46,0.65 -3.61,1.53 -5.93,1.49 -17.38,-0.35 -34.76,-0.34 -0.49,0 -0.51,0.49 -0.24,6.86 0.61,11.66 c 4.02,22.74 30.27,20.81 41.49,5.4 q 0.48,-0.66 0.62,0.14 c 1.42,7.96 -4.34,14.59 -10.76,18.04 z m -14.25,-60.58 c -11.86,-3.46 -16.44,10.24 -18.09,18.65 q -0.09,0.5 0.4,0.49 l 28.76,-0.6 q 0.47,-0.01 0.48,-0.48 c 0.24,-7.97 -3.68,-15.76 -11.55,-18.06 z"
           id="path210"
           style="stroke-width:1.11532" />
        <path
           fill="#343132"
           d="m 855.52332,1080.8995 c 8.06,8.3 8.41,21.96 2.95,31.7 -6.99,12.43 -22.58,15.96 -35.66,11.48 q -0.46,-0.16 -0.85,0.14 c -3.49,2.67 -4.12,8.77 -0.28,11.13 q 1.61,0.99 6.19,1.48 c 11.04,1.2 24.22,-0.08 33.75,5.66 7.54,4.53 6.88,17 2.23,23.18 -10.94,14.55 -46.04,17.99 -57.35,2.2 -5.4,-7.54 3.32,-18.03 10.72,-10.64 q 0.77,0.77 0.5,1.75 c -1.53,5.6 1.14,9.66 6.47,11.44 8.98,3.02 21.74,2.37 28.38,-5.03 3.58,-3.99 4.5,-11.34 -1.8,-13.7 -8.45,-3.17 -18.22,-1.97 -27.3,-3.51 q -6.34,-1.08 -9.11,-3.15 c -8.92,-6.72 -4.52,-17.98 4.39,-22.15 q 0.57,-0.27 0.08,-0.67 c -20.5,-16.7 -11.74,-48.03 15.03,-50.6 q 8.95,-0.86 16.43,3.4 0.45,0.26 0.81,-0.11 c 3.3,-3.27 13.57,-0.22 18.78,-2.49 q 0.41,-0.17 0.56,0.24 c 3.68,9.88 -8.66,10.18 -14.64,7.83 q -1.11,-0.43 -0.28,0.42 z m -22.57,39.12 c 20.5,6.64 21.8,-39.65 1.92,-42.5 -13.76,-1.97 -14.53,15.23 -13.5,23.91 0.92,7.71 3.4,15.94 11.58,18.59 z"
           id="path212"
           style="stroke-width:1.11532" />
        <path
           fill="#343132"
           d="m 1499.9334,1131.6695 c 12.09,-17.73 -42.39,-17.75 -32.7,-45.49 5.98,-17.14 27.46,-17.3 40.64,-10.54 a 2.21,2.23 7.4 0 1 1.16,1.52 q 1.35,6.47 -1.6,12.34 a 1.19,1.2 3.6 0 1 -0.63,0.56 q -2.15,0.79 -2.88,-0.83 c -10.37,-23.09 -41.35,-5.07 -19.89,7.34 7.56,4.39 22.06,8.56 26.97,18.21 6.56,12.89 -2.89,26.61 -16.52,29.18 q -14.61,2.75 -24.65,-6.61 -4.98,-4.64 -2.22,-11.4 0.2,-0.47 0.47,-0.04 c 5.46,8.69 25.13,15.62 31.85,5.76 z"
           id="path214"
           style="stroke-width:1.11532" />
        <path
           fill="#343132"
           d="m 1669.4634,1143.5895 c -16.4,-3.23 -23.22,-20.4 -23.06,-35.38 0.21,-18.82 12.82,-35.93 32.58,-36.65 47.84,-1.75 39.12,81.61 -9.52,72.03 z m 6.5,-65.07 c -24.42,-0.19 -18.77,62.79 5.85,58.83 22.96,-3.69 18.57,-58.64 -5.85,-58.83 z"
           id="path216"
           style="stroke-width:1.11532" />
        <path
           fill="#343132"
           d="m 1785.4234,1143.4695 c -19.18,-4.47 -24.9,-29.53 -20.59,-45.76 4,-15.06 15.79,-25.28 31.28,-26.22 28.38,-1.73 37.22,30.41 28.31,51.47 -6.68,15.82 -22.5,24.35 -39,20.51 z m 2.25,-9.87 q 5.99,5.33 12.46,3.48 c 21.05,-6.03 16.96,-54.89 -4.85,-58.25 -12.81,-1.97 -17.42,12.61 -18.04,22.16 -0.58,8.87 1.62,22.05 7.16,29.13 a 26.34,26.73 1.4 0 0 3.27,3.48 z"
           id="path218"
           style="stroke-width:1.11532" />
        <path
           fill="#343132"
           d="m 1890.7534,1080.9295 c 9.06,8.53 8.3,24.29 1.99,33.38 -7.79,11.22 -21.9,13.99 -34.58,9.78 q -0.47,-0.16 -0.85,0.16 c -5.65,4.9 -2.91,11.73 4.36,12.46 q 5.36,0.53 19.75,1.27 c 6.41,0.33 16.23,2.8 19.58,9.11 3.64,6.88 1.53,15.73 -4.05,21.18 -12.23,11.95 -41.23,13.87 -53.7,1.65 -8.34,-8.17 2.22,-21.24 9.56,-12.26 q 0.28,0.34 0.21,0.79 -1.38,7.92 4.22,11.07 c 7.71,4.34 19.37,3.2 27.15,-1.31 4.3,-2.49 8.73,-9.23 5.14,-14.11 -2.22,-3.01 -8.4,-4.22 -11.92,-4.34 q -9.16,-0.31 -18.24,-1.46 c -16.27,-2.06 -19.96,-17.83 -5.03,-25.62 a 0.42,0.42 0 0 0 0.04,-0.71 c -19.98,-13.91 -12.43,-45.05 10.91,-49.83 6.33,-1.3 14.35,-0.94 20.05,2.82 q 0.46,0.31 0.91,-0.02 l 1.53,-1.15 q 0.4,-0.3 0.9,-0.3 c 4.87,-0.02 12.29,0.89 16.68,-1.07 q 0.42,-0.18 0.56,0.25 c 3.27,10.11 -8.83,10.18 -14.89,7.81 a 0.27,0.27 0 0 0 -0.28,0.45 z m -30.55,32.33 c 3.3,6.91 12.48,9.45 18.08,5.05 10.75,-8.43 7.58,-39.48 -8.77,-40.87 -5.82,-0.5 -10.12,2.73 -11.65,8.28 q -3.95,14.38 2.34,27.54 z"
           id="path220"
           style="stroke-width:1.11532" />
        <path
           fill="#343132"
           d="m 2034.4834,1142.4495 c -31.65,11.05 -47.48,-23.01 -38.62,-47.65 q 3.67,-10.22 11.19,-16.27 c 10.72,-8.63 28.06,-9.79 39.01,-0.93 20.36,16.48 13.37,56.14 -11.58,64.85 z m -22.58,-16.82 c 7.31,15.87 24.48,15.82 30,-1.16 4.18,-12.85 2.38,-29.49 -6.87,-40.12 -4.32,-4.96 -11.4,-7.48 -17.29,-4.52 -14.55,7.33 -11.19,34.2 -5.84,45.8 z"
           id="path222"
           style="stroke-width:1.11532" />
        <path
           fill="#343132"
           d="m 2089.9334,1089.0095 a 0.26,0.26 0 0 0 0.49,0.15 c 3.69,-8.11 13.84,-19.98 24.03,-17.43 10.35,2.59 8.36,17.07 -2.24,14.94 q -0.5,-0.1 -0.74,-0.54 -3.36,-6.08 -9.6,-3.5 c -14.58,6.02 -11.19,46.73 -9.99,59.3 q 0.05,0.53 -0.49,0.53 l -12.79,0.07 q -0.51,0 -0.5,-0.51 0.59,-24.18 0.57,-48.28 c 0,-4.95 -0.8,-14.01 -6.03,-16.01 a 1.6,1.59 40.9 0 1 -0.21,-2.88 c 4.1,-2.29 11.59,-4.5 15.7,-2.15 4.49,2.55 2.43,11.75 1.8,16.31 z"
           id="path224"
           style="stroke-width:1.11532" />
        <path
           fill="#343132"
           d="m 880.34332,1076.9095 q -0.54,-1.34 0.85,-2.2 c 6.14,-3.8 19.01,-6.34 18.53,5.78 q -0.52,13.05 -0.82,50.64 c -0.03,3.45 0.43,7.26 0.67,10.88 q 0.03,0.47 -0.45,0.47 h -12.64 q -0.49,0 -0.48,-0.49 0.58,-24.91 1.18,-49.75 c 0.11,-4.54 -0.99,-10.91 -5.45,-13.91 q -1.13,-0.76 -1.39,-1.42 z"
           id="path226"
           style="stroke-width:1.11532" />
        <path
           fill="#343132"
           d="m 968.37336,1129.5095 c -5.55,7.81 -12.92,13.51 -22.45,14.65 -13.84004,1.66 -20.61004,-6.87 -20.49004,-19.78 q 0.13,-13.31 0.22,-26.65 c 0.04,-5.32 -0.51,-17.54 -6.55,-19.91 a 1.66,1.66 0 0 1 -0.23,-2.98 c 4.57,-2.67 15.34,-5.74 18.37,0.75 q 0.83,1.77 0.9,7.01 c 0.18,13.55 -0.65,25.24 0.22004,37.58 0.66,9.35 3.56,14.56 13.89,12.84 q 9.91,-1.66 15.74,-8.49 a 1.45,1.46 66 0 0 0.36,-0.93 q 0.37,-12.88 0.53,-25.88 c 0.07,-5.46 0.14,-17.83 -6.17,-20.11 a 1.53,1.54 38.5 0 1 -0.31,-2.73 c 4,-2.57 16.32,-6.2 18.17,1.16 q 0.8,3.15 0.81,5.5 0.08,18.84 0.03,37.69 c -0.02,7.26 0.19,19.23 10.3,18.92 a 1.6,1.6 0 0 1 0.77,3.03 c -13.11,6.59 -21.89,3.78 -23.41,-11.48 q -0.11,-1.02 -0.7,-0.19 z"
           id="path228"
           style="stroke-width:1.11532" />
        <path
           fill="#343132"
           d="m 1526.6534,1077.7695 a 1.75,1.76 45.5 0 1 0.03,-3.02 q 5.42,-3.14 12.24,-2.89 c 5.93,0.21 6.58,5.32 6.43,9.99 -0.82,26.43 -1.53,44.65 -0.23,60.13 q 0.04,0.5 -0.47,0.5 h -12.68 q -0.4,0 -0.39,-0.4 0.54,-24.57 0.94,-49.1 c 0.09,-5.63 -0.53,-11.98 -5.87,-15.21 z"
           id="path230"
           style="stroke-width:1.11532" />
        <path
           fill="#343132"
           d="m 1916.5534,1077.8695 a 1.75,1.75 0 0 1 -0.09,-3.07 c 4.61,-2.72 16.92,-6.4 18.37,2.24 q 0.72,4.28 0.42,10.88 -1.07,22.89 -0.84,45.81 0.04,4.16 0.64,8.28 0.06,0.47 -0.41,0.47 h -12.69 q -0.59,0 -0.58,-0.6 0.66,-24.75 1.06,-49.38 c 0.09,-5.43 -0.96,-12.12 -5.88,-14.63 z"
           id="path232"
           style="stroke-width:1.11532" />
        <path
           fill="#343132"
           d="m 1446.6834,1212.9595 q -0.03,-9.37 -0.31,-18.73 c -0.12,-4.12 -1.23,-9.72 -5.56,-11.1 a 1.77,1.77 0 0 1 -0.4,-3.19 c 4.81,-3 16.85,-6.01 18.9,2.37 0.75,3.07 0.91,6.09 0.75,9.57 q -1.69,36.67 -0.41,73.35 c 0.23,6.66 2.43,13.61 10.36,13.31 a 1.46,1.46 0 0 1 0.7,2.77 c -8.38,4.12 -19.74,6.36 -22.72,-5.68 q -0.15,-0.62 -0.63,-0.2 c -9.36,8.14 -20.54,12.78 -32.25,6.06 q -10.08,-5.78 -12.98,-18.93 c -4.83,-21.87 5.29,-49.64 30.84,-50.83 4.19,-0.19 8.78,0.74 13.1,1.72 q 0.61,0.13 0.61,-0.49 z m -31.93,44.8 c 2.85,15.22 18.15,22.87 31.42,13.32 q 0.34,-0.25 0.34,-0.67 l 0.21,-48.39 q 0,-0.5 -0.48,-0.64 -9.09,-2.82 -16.42,-1.81 c -15.45,2.15 -17.25,26.59 -15.07,38.19 z"
           id="path250"
           style="stroke-width:1.11532" />
        <path
           fill="#343132"
           d="m 1958.4734,1188.1995 a 0.32,0.32 0 0 0 -0.62,-0.01 c -2.37,9.4 -10.4,18.63 -21.15,13.86 a 0.5,0.5 0 0 1 -0.02,-0.91 c 6.07,-2.93 10.48,-10.02 14.22,-15.42 3.45,-4.98 9.6,-6.87 13.68,-1.44 4.23,5.63 8.53,13.56 14.87,16.89 q 0.49,0.26 0.06,0.6 -1.57,1.21 -4.03,1.5 c -9.21,1.08 -15.36,-7.04 -17.01,-15.07 z"
           id="path252"
           style="stroke-width:1.11532" />
        <circle
           fill="#343132"
           cx="2095.8433"
           cy="1192.8995"
           r="7.3600001"
           id="circle254"
           style="stroke-width:1.11532" />
        <circle
           fill="#343132"
           cx="1491.6733"
           cy="1192.9095"
           r="7.3499999"
           id="circle256"
           style="stroke-width:1.11532" />
        <path
           fill="#343132"
           d="m 1689.8234,1245.3295 30.78,37.16 q 0.31,0.37 -0.17,0.35 c -4.75,-0.15 -12.2,-0.88 -16.7,0.17 q -0.99,0.24 -1.5,-0.59 c -8.17,-13.14 -17.21,-23.13 -26.95,-34.07 q -0.38,-0.42 -0.94,-0.48 l -6.59,-0.78 a 0.56,0.56 0 0 0 -0.63,0.57 l 1.12,34.87 a 0.35,0.36 88.5 0 1 -0.36,0.37 l -14.06,-0.19 q -0.73,-0.01 -0.72,-0.74 0.49,-33.24 0.33,-65.24 c -0.04,-7.6 -0.14,-16.83 -3.56,-23.68 a 1.83,1.83 0 0 1 1.58,-2.65 q 12.96,-0.4 26.71,-0.55 c 14.05,-0.15 27,6.68 29.61,21.36 2.83,15.88 -4.13,26.72 -17.82,33.51 q -0.45,0.22 -0.13,0.61 z m -22.14,-5.63 c 8.64,2.19 18.4,1.07 24.01,-6.11 5.91,-7.54 5.2,-20.2 -0.06,-28.04 -5.27,-7.87 -14.58,-8.64 -23.56,-7.66 a 0.59,0.59 0 0 0 -0.53,0.58 l -0.4,40.53 a 0.72,0.71 7.7 0 0 0.54,0.7 z"
           id="path258"
           style="stroke-width:1.11532" />
        <path
           fill="#343132"
           d="m 1537.7534,1226.6395 a 0.31,0.3 69.2 0 0 0.55,0.25 q 7.07,-10.91 18.7,-14.09 c 9.73,-2.66 19.45,-0.16 23.18,9.63 q 1.33,3.48 1.25,10.75 c -0.19,18.46 -0.34,33.79 1.31,49.16 q 0.06,0.57 -0.51,0.56 l -11.88,-0.23 a 1.54,1.55 0.9 0 1 -1.51,-1.57 q 0.31,-19.8 0.43,-39.37 c 0.05,-8.55 -0.73,-19.09 -11.95,-18.91 q -11.54,0.19 -19.14,9.33 -0.32,0.39 -0.31,0.88 c 0.13,16.16 -0.75,33.42 1.29,49.41 a 0.44,0.44 0 0 1 -0.44,0.5 l -12.86,-0.29 q -0.48,-0.01 -0.47,-0.49 0.34,-23.98 0.45,-47.93 c 0.02,-6.09 -0.43,-12.69 -6.21,-16.02 q -1.31,-0.76 -0.68,-2.55 0.16,-0.46 0.59,-0.69 c 10.56,-5.66 22.42,-4.19 18.21,11.67 z"
           id="path262"
           style="stroke-width:1.11532" />
        <path
           fill="#343132"
           d="m 1787.3734,1266.6495 c -12.19,23.6 -47.96,25.44 -57.04,-2.64 -5.41,-16.73 -1.51,-36.87 13.67,-46.95 7.68,-5.11 18.11,-6.64 26.97,-4.07 22.68,6.59 25.68,35.7 16.4,53.66 z m -33.76,8.39 q 5.72,4.32 11.83,2.14 c 20.03,-7.16 16.09,-53.32 -4.91,-58.04 -9.82,-2.2 -16.06,7.1 -17.84,15.59 -2.65,12.58 0.04,32.1 10.92,40.31 z"
           id="path264"
           style="stroke-width:1.11532" />
        <path
           fill="#343132"
           d="m 1825.1434,1226.3495 a 0.37,0.37 0 0 0 0.67,0.29 q 8.24,-12.54 22.26,-14.6 c 10.27,-1.51 18.08,3.68 20.55,13.82 q 0.18,0.71 0.58,0.1 7.14,-10.63 18.68,-13.4 c 9.62,-2.32 18.77,0.54 22.32,10.06 q 1.27,3.39 1.17,10.49 c -0.24,16.32 -0.5,32.9 1.26,49.16 a 0.66,0.66 0 0 1 -0.67,0.73 l -12.15,-0.28 a 0.9,0.9 0 0 1 -0.88,-0.9 q -0.02,-21.71 -0.02,-43.59 c 0,-8.29 -2.2,-15.58 -11.88,-15.43 q -10.11,0.16 -17.56,7.37 -0.37,0.36 -0.39,0.88 -1.17,25.63 0.84,51.22 0.05,0.69 -0.64,0.67 l -11.67,-0.29 q -1.43,-0.03 -1.41,-1.47 0.38,-21.86 0.29,-42.45 c -0.04,-7.46 -1.91,-15.77 -10.83,-15.89 q -11.59,-0.17 -19.76,8.88 -0.78,0.86 -0.64,1.65 0.14,0.79 0.14,0.86 c 0.03,15.61 -1.21,32.64 1.09,48.04 q 0.09,0.59 -0.51,0.58 l -12.81,-0.05 q -0.5,-0.01 -0.5,-0.5 0.36,-22.52 0.51,-44.96 c 0.04,-6.47 0.16,-16.22 -6.36,-19.2 a 1.72,1.72 0 0 1 -0.11,-3.07 c 10.42,-5.65 22.45,-4.54 18.43,11.28 z"
           id="path266"
           style="stroke-width:1.11532" />
        <path
           fill="#343132"
           d="m 1969.0934,1272.1895 c -6.57,11.48 -20.78,16.62 -31.95,8.79 -8.31,-5.83 -9.3,-18.01 -3.01,-25.88 7.67,-9.6 22.99,-10.9 34.15,-8.26 q 0.41,0.1 0.45,-0.31 c 1.34,-11.46 1.36,-31.58 -15.38,-28.16 q -8.07,1.65 -8.16,10.59 0,0.49 -0.43,0.72 c -7.09,3.8 -14.38,-3.23 -9.53,-9.93 6.66,-9.18 23.57,-9.09 32.91,-6.38 13.25,3.84 13.6,12.62 13.41,25.65 q -0.13,9.23 -0.1,21.71 c 0.02,6.66 0.73,18.49 10.43,17.82 a 1.53,1.53 0 0 1 0.75,2.92 c -10.59,4.91 -21.22,5.66 -23.08,-9.19 q -0.1,-0.74 -0.46,-0.09 z m -25.7,-11.25 c -2.12,5.34 1.14,12.57 7.7,13.35 q 9.97,1.2 17.03,-5.59 a 1.08,1.04 69.8 0 0 0.33,-0.75 l 0.39,-16.98 q 0.01,-0.66 -0.64,-0.63 c -7.56,0.36 -21.43,2.12 -24.81,10.6 z"
           id="path268"
           style="stroke-width:1.11532" />
        <path
           fill="#343132"
           d="m 2020.1834,1226.6995 a 0.27,0.26 67.1 0 0 0.48,0.2 q 6.38,-9.78 16.5,-13.43 c 10.44,-3.77 21.93,-1.52 25.65,9.82 q 1.17,3.57 0.97,11.54 -0.61,23.83 1.12,47.65 0.04,0.57 -0.52,0.55 l -12.21,-0.37 q -0.82,-0.02 -0.82,-0.84 0.13,-24.06 0.04,-43.9 c -0.03,-7.34 -2.21,-15.14 -10.99,-15.18 q -11.73,-0.06 -19.63,9.12 -0.31,0.36 -0.31,0.84 c -0.1,19.1 -1.06,34.45 1.04,49.63 q 0.08,0.6 -0.52,0.59 l -12.82,-0.23 q -0.45,-0.01 -0.44,-0.46 0.41,-24.02 0.47,-48 c 0.02,-6.3 -0.59,-12.99 -6.49,-16.31 q -0.44,-0.25 -0.54,-0.75 -0.35,-1.76 1.58,-2.59 c 11.98,-5.22 20.24,-3.43 17.44,12.12 z"
           id="path270"
           style="stroke-width:1.11532" />
        <path
           fill="#343132"
           d="m 2160.6734,1272.1795 a 0.29,0.29 0 0 0 -0.54,-0.12 q -5.54,10.69 -17.7,12.43 c -19.21,2.77 -28.83,-20.36 -14.24,-32.51 8.13,-6.76 21.38,-7.54 31.49,-5.06 a 0.4,0.39 6.9 0 0 0.49,-0.38 c 0.01,-9.78 2.01,-31.37 -15,-28.28 q -8.82,1.61 -8.98,10.82 -0.01,0.48 -0.44,0.71 c -7.5,3.99 -13.67,-3.12 -9.14,-10.38 q 2.19,-3.54 8.35,-5.57 c 11.51,-3.82 31.75,-3.76 36.59,10.6 q 1.26,3.71 1.06,12.65 c -0.29,12.49 -0.83,22.72 1.01,33.11 q 1.5,8.43 9.32,8.34 a 1.57,1.56 32.6 0 1 0.66,2.99 c -9.96,4.45 -22.37,5.53 -22.93,-9.35 z m -26.78,-8.4 c -1.46,16.15 25.45,11.04 25.7,2.94 q 0.31,-10.18 0.37,-15.89 0.01,-0.65 -0.65,-0.6 c -7.95,0.64 -24.41,2.37 -25.42,13.55 z"
           id="path272"
           style="stroke-width:1.11532" />
        <path
           fill="#343132"
           d="m 1480.1534,1217.6895 a 0.42,0.4 12.1 0 1 -0.19,-0.28 c -0.66,-4.4 10.13,-5.4 12.96,-5.34 7.96,0.17 6.84,10.35 6.36,16.23 q -1.01,12.56 -0.56,48.18 0.01,1.46 0.61,5.95 0.05,0.43 -0.38,0.42 l -12.82,-0.17 q -0.51,0 -0.5,-0.52 0.9,-36.97 1.11,-49.17 c 0.1,-5.84 -0.9,-12.05 -6.59,-15.3 z"
           id="path274"
           style="stroke-width:1.11532" />
        <path
           fill="#343132"
           d="m 2084.9634,1218.2195 q -0.57,-0.13 -0.69,-0.54 c -1.37,-4.58 10.12,-5.68 12.65,-5.67 6.19,0.04 6.87,5.69 6.71,10.4 q -0.93,26.94 -0.69,53.9 c 0.02,1.98 0.33,3.97 0.61,6.02 q 0.09,0.63 -0.55,0.62 l -12.6,-0.29 q -0.52,-0.02 -0.51,-0.54 0.42,-24.34 0.88,-48.64 c 0.11,-5.63 -0.3,-11.39 -4.99,-14.88 q -0.37,-0.27 -0.82,-0.38 z"
           id="path276"
           style="stroke-width:1.11532" />
      </g>
      <path
         d="m 123.03297,40.676373 c 0.40115,0.802306 0.0456,1.577003 -0.15658,2.414307 -0.0685,0.29229 -0.0685,0.29229 -0.13821,0.590483 -0.0989,0.421673 -0.19857,0.843162 -0.29894,1.264485 -0.1595,0.66996 -0.3168,1.340403 -0.47347,2.011031 -0.21217,0.907608 -0.42501,1.815054 -0.63857,2.722334 -2.03481,8.647709 -3.87398,17.340173 -5.27879,26.113931 -0.28693,1.782265 -0.61824,3.55512 -0.95417,5.328699 -0.38033,2.013264 -0.73197,4.015731 -0.96592,6.051915 -0.093,0.69327 -0.20951,1.368905 -0.34051,2.05539 -0.31721,1.733056 -0.55043,3.475619 -0.78199,5.221783 -0.0474,0.353801 -0.0948,0.707595 -0.14231,1.061384 -0.0994,0.741128 -0.19827,1.482315 -0.29686,2.223547 -0.12294,0.924348 -0.24657,1.848601 -0.37049,2.772818 -0.31543,2.35296 -0.6278,4.70632 -0.9382,7.05996 -0.0237,0.17986 -0.0475,0.35973 -0.0719,0.54505 -0.1404,1.0641 -0.28006,2.12828 -0.4187,3.19261 -0.0628,0.48113 -0.12605,0.9622 -0.18934,1.44328 -0.33165,2.55896 -0.56655,5.12045 -0.76974,7.69234 -0.086,1.05456 -0.18691,2.10759 -0.28833,3.16076 -0.0304,0.32251 -0.0304,0.32251 -0.0614,0.65153 -0.11639,1.22649 -0.24205,2.45144 -0.37708,3.67603 -0.65371,6.09318 -0.93743,12.20622 -1.24667,18.3248 -0.0834,1.64417 -0.1721,3.28803 -0.26499,4.9317 -0.19957,3.58046 -0.35972,7.16163 -0.45639,10.74637 -0.005,0.19463 -0.0106,0.38928 -0.016,0.58981 -0.13316,5.01751 -0.14826,10.03475 -0.14544,15.05376 3e-5,0.23782 6e-5,0.47563 9e-5,0.72066 10e-4,8.75226 0.15695,17.48268 0.54795,26.2272 0.0133,0.30527 0.0267,0.61055 0.0404,0.92507 0.50368,11.50067 1.31453,22.96661 2.50696,34.41659 0.0186,0.17897 0.0372,0.35793 0.0564,0.54233 0.0758,0.72574 0.15271,1.45128 0.23364,2.17645 0.1622,1.49066 0.22289,2.96812 0.23157,4.46738 0.005,0.22703 0.0103,0.45406 0.0157,0.68798 0.009,1.55959 -0.26756,2.53967 -1.14305,3.85291 -0.77479,0.49807 -1.28696,0.41116 -2.19216,0.28185 -6.26654,-2.73449 -9.892186,-10.93955 -12.547516,-16.78332 -0.19444,-0.42628 -0.39399,-0.85021 -0.59465,-1.27358 -0.30931,-0.65694 -0.60252,-1.31788 -0.88762,-1.98567 -0.11175,-0.26159 -0.22349,-0.52317 -0.33861,-0.7927 -5.1963,-12.97684 -6.91766,-28.01664 -8.68055,-41.79775 -0.0619,-0.48219 -0.0619,-0.48219 -0.12514,-0.97411 -1.15959,-9.26235 -1.52118,-18.59736 -1.48995,-27.92435 0.002,-0.74275 0.003,-1.4855 0.004,-2.22825 0.0124,-7.23424 0.19898,-14.39187 1.03596,-21.58429 0.10141,-0.89733 0.19058,-1.79574 0.28004,-2.69433 0.59676,-5.96447 1.51645,-11.85282 2.60727,-17.74612 0.0373,-0.20331 0.0746,-0.40663 0.11297,-0.6161 0.2181,-1.15572 0.49696,-2.26891 0.83142,-3.39632 0.11546,-0.55729 0.22482,-1.11588 0.32882,-1.67543 1.31489,-6.76998 3.44005,-13.360298 5.68395,-19.870326 0.0803,-0.23422 0.16059,-0.468443 0.24331,-0.70976 2.60426,-7.54422 5.8078,-14.931588 9.760596,-21.866261 0.35875,-0.633297 0.7053,-1.27289 1.05082,-1.913489 0.24001,-0.438477 0.4801,-0.876907 0.72028,-1.315292 0.13047,-0.242538 0.26094,-0.485074 0.39537,-0.73496 3.3972,-6.151872 7.62994,-11.917404 12.13124,-17.303349 0.12344,-0.148275 0.24689,-0.296551 0.37409,-0.449319 3.39207,-4.068444 3.39207,-4.068444 4.88708,-5.563451 z"
         style="display:block;fill:#fbca19;stroke-width:0.264583"
         id="path577" />
      <path
         d="m 2.527051,59.967343 c 8.514732,-0.358935 17.603669,2.303736 24.552142,7.26543 0.247058,0.173101 0.494116,0.346204 0.74866,0.524551 8.727558,6.393814 12.829492,15.331842 14.918762,25.696029 2.018882,9.944217 4.378019,20.247047 8.884721,29.397527 0.109076,0.22393 0.218153,0.44786 0.330536,0.67858 5.513846,11.22637 14.100236,19.67725 26.022302,23.88922 0.48451,0.16447 0.96956,0.32743 1.45622,0.48541 0.0827,0.57873 0.16535,1.15746 0.25053,1.75373 -13.670743,-0.22959 -27.887097,-4.91638 -38.015302,-14.26173 -0.512331,-0.46986 -1.036679,-0.91809 -1.568762,-1.36521 -7.902735,-6.91886 -12.588041,-17.33933 -15.823888,-27.08535 -0.185128,-0.55474 -0.375084,-1.10734 -0.568346,-1.65929 C 22.162051,100.79245 21.207335,96.196341 20.314828,91.534383 20.21053,90.994807 20.106142,90.455251 20.001663,89.91571 19.792234,88.832274 19.584252,87.748575 19.37729,86.664666 19.164744,85.552376 18.949213,84.440724 18.731387,83.329458 18.622324,82.771 18.513367,82.212523 18.404521,81.654025 18.351738,81.383734 18.298956,81.113444 18.244574,80.834963 17.96611,79.389178 17.717182,77.944261 17.506434,76.487106 16.948003,72.626779 15.593738,69.554266 12.548333,66.98224 11.65943,66.341217 10.741913,65.775077 9.792481,65.228516 9.602909,65.11516 9.413336,65.001804 9.218019,64.885013 7.213742,63.777658 4.980834,63.287209 2.777583,62.723196 2.515271,61.78961 2.508407,60.936869 2.527051,59.967343 Z"
         style="display:block;fill:#f26a32;stroke-width:0.264583"
         id="path579" />
      <path
         d="m 207.46227,59.967343 c -0.37204,1.364147 -0.37204,1.364147 -0.75159,2.755853 -0.30875,0.07589 -0.61749,0.151787 -0.93558,0.22998 -5.76352,1.445254 -11.61912,3.931528 -14.87339,9.187969 -0.74164,1.281148 -1.24524,2.618861 -1.70381,4.02564 -0.25121,0.764342 -0.53686,1.491593 -0.85436,2.230322 -0.77212,1.817063 -1.46258,3.664393 -2.16084,5.510727 -0.17215,0.454446 -0.3444,0.90886 -0.51672,1.363247 -0.0951,0.251236 -0.19017,0.502472 -0.28814,0.761321 -5.508,14.451178 -12.21327,28.790558 -22.76569,40.284828 -0.47323,0.51709 -0.93197,1.04396 -1.3887,1.57561 -1.49656,1.71381 -3.12893,3.26632 -4.86972,4.72879 -0.13427,0.11401 -0.26854,0.22801 -0.40687,0.34547 -4.89038,4.13659 -10.28926,7.59931 -16.14244,10.20869 -0.43753,0.19655 -0.87153,0.40093 -1.30501,0.60626 -2.72682,1.24924 -5.6029,2.06203 -8.4754,2.90547 -0.57454,0.1693 -1.14707,0.34323 -1.7191,0.52076 -5.17359,1.51586 -11.14797,2.52615 -16.54588,2.44954 0.066,-0.75583 0.1054,-1.12565 0.50106,-1.75373 0.90525,-0.52733 1.88322,-0.80501 2.88112,-1.11173 0.57455,-0.19189 1.14868,-0.38502 1.7224,-0.57936 0.28324,-0.0946 0.56646,-0.18925 0.85828,-0.28674 15.33692,-5.29957 25.86995,-18.81211 33.32944,-32.56133 0.26902,-0.49361 0.54253,-0.98439 0.81729,-1.47482 2.63135,-4.75826 4.7362,-9.8222 6.87593,-14.814662 0.18073,-0.421222 0.18073,-0.421222 0.3651,-0.850952 0.59973,-1.398856 1.19707,-2.798661 1.79054,-4.20018 1.6114,-3.787028 3.24147,-7.615943 5.69404,-10.949647 0.18972,-0.262469 0.18972,-0.262469 0.38326,-0.53024 5.19059,-7.093919 11.75887,-12.320754 19.69062,-16.067509 0.3798,-0.181661 0.3798,-0.181661 0.76726,-0.36699 6.2075,-2.900954 13.1764,-4.407578 20.0269,-4.142587 z"
         style="display:block;fill:#167fc8;stroke-width:0.264583"
         id="path581" />
    </g>
  </g>
</svg>
