<?xml version="1.0" encoding="UTF-8" standalone="no"?>
<svg
   width="31"
   height="31"
   viewBox="0 0 31 31"
   fill="none"
   version="1.1"
   id="svg3"
   sodipodi:docname="whatsapp-2.svg"
   inkscape:version="1.4.2 (f4327f4, 2025-05-13)"
   xml:space="preserve"
   xmlns:inkscape="http://www.inkscape.org/namespaces/inkscape"
   xmlns:sodipodi="http://sodipodi.sourceforge.net/DTD/sodipodi-0.dtd"
   xmlns="http://www.w3.org/2000/svg"
   xmlns:svg="http://www.w3.org/2000/svg"><defs
     id="defs3" /><sodipodi:namedview
     id="namedview3"
     pagecolor="#ffffff"
     bordercolor="#000000"
     borderopacity="0.25"
     inkscape:showpageshadow="2"
     inkscape:pageopacity="0.0"
     inkscape:pagecheckerboard="0"
     inkscape:deskcolor="#d1d1d1"
     inkscape:zoom="16"
     inkscape:cx="13.71875"
     inkscape:cy="17.71875"
     inkscape:window-width="1920"
     inkscape:window-height="1009"
     inkscape:window-x="-8"
     inkscape:window-y="-8"
     inkscape:window-maximized="1"
     inkscape:current-layer="svg3" /><path
     d="M 30.3139,14.8011 C 30.1739,10.9697 28.5594,7.34056 25.8073,4.67136 23.0552,2.00216 19.3784,0.499287 15.5446,0.476567 H 15.4722 C 12.8904,0.474649 10.3527,1.14494 8.10857,2.42148 5.86449,3.69802 3.99142,5.53682 2.67367,7.75695 1.35592,9.97709 0.6389,12.5021 0.593155,15.0834 0.547411,17.6648 1.17452,20.2135 2.41278,22.479 l -1.31484,7.8679 c -0.00214,0.0161 -8.2e-4,0.0325 0.00388,0.0481 0.00469,0.0156 0.01266,0.03 0.02336,0.0423 0.0107,0.0123 0.02389,0.0221 0.03869,0.0289 0.0148,0.0068 0.03088,0.0103 0.04716,0.0104 h 0.02262 l 7.78196,-1.731 c 2.01069,0.9653 4.21259,1.4662 6.44299,1.4656 0.1418,0 0.2835,0 0.4252,0 1.962,-0.056 3.8935,-0.5 5.6829,-1.3064 1.7895,-0.8064 3.4015,-1.9592 4.7431,-3.3919 1.3416,-1.4327 2.3862,-3.1169 3.0734,-4.9555 0.6872,-1.8385 1.0035,-3.7949 0.9307,-5.7563 z m -14.504,12.8241 c -0.1176,0 -0.2352,0 -0.3513,0 -1.9712,0.0025 -3.9142,-0.4692 -5.66494,-1.3751 L 9.39559,26.042 4.11815,27.289 5.09221,21.9497 4.86604,21.5667 C 3.78579,19.725 3.20393,17.6336 3.17778,15.4985 3.15163,13.3635 3.68208,11.2584 4.71689,9.39075 5.75171,7.52306 7.25518,5.95715 9.07924,4.84724 10.9033,3.73732 12.985,3.1217 15.1194,3.06101 c 0.1186,0 0.2377,0 0.3573,0 3.2225,0.00955 6.3122,1.28463 8.6035,3.55053 2.2913,2.26589 3.6008,5.34126 3.6463,8.56336 0.0454,3.2222 -1.1767,6.3332 -3.4031,8.6629 -2.2265,2.3297 -5.279,3.6915 -8.4999,3.792 z"
     fill="#25d366"
     id="path2"
     style="fill:#1b8755;fill-opacity:1" /><path
     d="M 10.2894,8.16663 C 10.1057,8.17022 9.92456,8.21063 9.75673,8.28548 9.5889,8.36033 9.43779,8.4681 9.31236,8.6024 c -0.35435,0.36339 -1.345,1.23794 -1.4023,3.0745 -0.05729,1.8365 1.22588,3.6535 1.40531,3.9083 0.17944,0.2548 2.45323,4.222 6.19873,5.8308 2.2015,0.9485 3.1665,1.1113 3.7922,1.1113 0.2579,0 0.4524,-0.0271 0.6559,-0.0392 0.6861,-0.0422 2.2347,-0.8353 2.5724,-1.6978 0.3378,-0.8625 0.3604,-1.6164 0.2714,-1.7672 -0.0889,-0.1508 -0.3332,-0.2594 -0.7011,-0.4524 -0.3679,-0.193 -2.1728,-1.158 -2.5121,-1.2937 -0.1258,-0.0586 -0.2612,-0.0938 -0.3996,-0.104 -0.0901,0.0047 -0.1777,0.0313 -0.2552,0.0776 -0.0775,0.0462 -0.1426,0.1107 -0.1896,0.1877 -0.3015,0.3755 -0.9936,1.1912 -1.2259,1.4265 -0.0507,0.0584 -0.1132,0.1055 -0.1833,0.1383 -0.0701,0.0327 -0.1464,0.0503 -0.2238,0.0517 -0.1426,-0.0063 -0.2821,-0.0439 -0.4086,-0.1101 -1.0933,-0.4643 -2.0901,-1.1292 -2.9388,-1.9602 -0.793,-0.7816 -1.4658,-1.6764 -1.9964,-2.6553 -0.205,-0.38 0,-0.576 0.187,-0.7539 0.187,-0.178 0.3875,-0.4237 0.5805,-0.6364 0.1584,-0.1816 0.2904,-0.3846 0.3921,-0.6031 0.0526,-0.1014 0.0792,-0.2143 0.0773,-0.3285 -0.0018,-0.1143 -0.032,-0.2262 -0.0879,-0.3259 -0.0889,-0.19 -0.7539,-2.05819 -1.066,-2.80759 C 11.6013,8.23298 11.2997,8.21187 11.0358,8.19227 10.8187,8.17719 10.5699,8.16965 10.3211,8.16211 h -0.0317"
     fill="#25d366"
     id="path3"
     style="fill:#1b8755;fill-opacity:1" /></svg>
